<?xml version="1.0" encoding="UTF-8"?>
<svg width="20px" height="20px" viewBox="0 0 20 20" version="1.1" xmlns="http://www.w3.org/2000/svg" xmlns:xlink="http://www.w3.org/1999/xlink">
    <title>gerenzhongxin</title>
    <g id="web" stroke="none" stroke-width="1" fill="none" fill-rule="evenodd">
        <g id="Collected" transform="translate(-472.000000, -333.000000)" fill="#FFFFFF" fill-rule="nonzero">
            <g id="编组-11" transform="translate(240.000000, 240.000000)">
                <g id="gerenzhongxin" transform="translate(232.000000, 93.000000)">
                    <path d="M10,0 C4.4771525,0 0,4.4771525 0,10 C0,15.5228475 4.4771525,20 10,20 C15.5228475,20 20,15.5228475 20,10 C20,7.3478351 18.9464316,4.80429597 17.0710678,2.92893219 C15.195704,1.0535684 12.6521649,0 10,0 Z M10,11.8737392 C11.8435349,11.8737392 13.6082831,12.62126 14.8909091,13.9454546 C15.2129148,14.1972843 15.3272336,14.633071 15.1703094,15.0105372 C15.0133853,15.3880034 14.623815,15.6143081 14.2181818,15.5636364 L5.78181818,15.5636364 C5.376185,15.6143081 4.98661472,15.3880034 4.82969057,15.0105372 C4.67276643,14.633071 4.78708521,14.1972843 5.10909092,13.9454546 C6.39171692,12.62126 8.15646514,11.8737392 10,11.8737392 Z M10,4.11818182 C11.7466739,4.11811765 13.1668467,5.52611757 13.1818182,7.27272727 C13.1928702,8.56207688 12.4246916,9.7306273 11.2366454,10.2317169 C10.0485992,10.7328066 8.67559344,10.4673568 7.75993629,9.55954815 C6.84427914,8.65173949 6.56702015,7.28106964 7.05786433,6.08875401 C7.54870851,4.89643837 8.71060302,4.11818182 10,4.11818182 Z" id="形状"></path>
                </g>
            </g>
        </g>
    </g>
</svg>