<?xml version="1.0" encoding="UTF-8"?>
<svg width="83px" height="112px" viewBox="0 0 83 112" version="1.1" xmlns="http://www.w3.org/2000/svg" xmlns:xlink="http://www.w3.org/1999/xlink">
    <!-- Generator: Sketch 54 (76480) - https://sketchapp.com -->
    <title>Arrow</title>
    <desc>Created with Sketch.</desc>
    <g id="页面1" stroke="none" stroke-width="1" fill="none" fill-rule="evenodd">
        <g id="首页" transform="translate(-1815.000000, -511.000000)" fill="#FFFFFF" fill-rule="nonzero">
            <g id="Arrow" transform="translate(1815.000000, 511.000000)">
                <path d="M81.2730253,61.5445759 L45.0661918,109.701302 C42.7629999,112.766233 39.0287689,112.766233 36.7266951,109.701302 C34.424435,106.639097 34.424435,101.672495 36.7266951,98.6105385 L68.764153,55.9991944 L36.7276269,13.3893375 C34.4253667,10.3258935 34.4253667,5.35978772 36.7276269,2.29758303 C39.0298871,-0.76586101 42.7639317,-0.76586101 45.0671236,2.29758303 L81.2739571,50.4550523 C82.4250872,51.9868982 83,53.9924266 83,55.9989465 C83,58.0064579 82.4239691,60.0134736 81.2730253,61.5445759 Z" id="Shape"></path>
                <path d="M46.2730253,61.5445759 L10.0661918,109.701302 C7.76299989,112.766233 4.02876893,112.766233 1.72669513,109.701302 C-0.575565042,106.639097 -0.575565042,101.672495 1.72669513,98.6105385 L33.764153,55.9991944 L1.72762691,13.3893375 C-0.574633254,10.3258935 -0.574633254,5.35978772 1.72762691,2.29758303 C4.02988708,-0.76586101 7.76393168,-0.76586101 10.0671236,2.29758303 L46.2739571,50.4550523 C47.4250872,51.9868982 48,53.9924266 48,55.9989465 C48,58.0064579 47.4239691,60.0134736 46.2730253,61.5445759 Z" id="Shape" opacity="0.5"></path>
            </g>
        </g>
    </g>
</svg>