<?xml version="1.0" encoding="UTF-8"?>
<svg width="10px" height="18px" viewBox="0 0 10 18" version="1.1" xmlns="http://www.w3.org/2000/svg" xmlns:xlink="http://www.w3.org/1999/xlink">
    <title>箭头左复制</title>
    <g id="web" stroke="none" stroke-width="1" fill="none" fill-rule="evenodd">
        <g id="首页复制" transform="translate(-1594.000000, -258.000000)" fill="#FFFFFF" fill-rule="nonzero">
            <g id="箭头左复制" transform="translate(1598.924393, 266.696160) scale(-1, 1) rotate(-360.000000) translate(-1598.924393, -266.696160) translate(1594.000000, 258.000000)">
                <path d="M3.80187989,8.69576754 L9.65306196,15.2143155 C9.95037393,15.5456188 9.9036159,16.0451563 9.5492095,16.3231222 L8.42017579,17.2088112 C8.06501768,17.4874799 7.53139719,17.4437699 7.23329591,17.1116936 L0.195985692,9.27165695 C0.0469162439,9.10563635 -0.0157034443,8.89738153 0.00331549481,8.69576754 C-0.0157034443,8.4948914 0.0469162439,8.28663661 0.195985692,8.12061602 L7.23329591,0.280614487 C7.53143476,-0.0514266984 8.06501765,-0.0951717976 8.42017579,0.183496848 L9.5492095,1.06918591 C9.90361586,1.34711667 9.95037393,1.84665416 9.65306196,2.17799261 L3.80187989,8.69576754 L3.80187989,8.69576754 Z" id="路径"></path>
            </g>
        </g>
    </g>
</svg>