<?xml version="1.0" encoding="UTF-8"?>
<svg width="31px" height="31px" viewBox="0 0 31 31" version="1.1" xmlns="http://www.w3.org/2000/svg" xmlns:xlink="http://www.w3.org/1999/xlink">
    <!-- Generator: Sketch 54 (76480) - https://sketchapp.com -->
    <title>拍卖</title>
    <desc>Created with Sketch.</desc>
    <g id="页面1" stroke="none" stroke-width="1" fill="none" fill-rule="evenodd">
        <g id="market-auction" transform="translate(-14.000000, -644.000000)" fill="#FFFFFF" fill-rule="nonzero">
            <g id="拍卖" transform="translate(14.000000, 644.000000)">
                <path d="M18.2897321,26.9835959 L3.61495536,26.9835959 C3.27511161,26.9835959 3,27.2560261 3,27.5854766 L3,29.1852124 C3,29.5178307 3.27834821,29.7870932 3.61495536,29.7870932 L18.2864955,29.7870932 C18.6263393,29.7870932 18.9014509,29.5146629 18.9014509,29.1852124 L18.9014509,27.5854766 C18.9079241,27.2528583 18.6295759,26.9835959 18.2897321,26.9835959 Z M28.2153108,24.8982086 L19.002772,15.6504295 C18.790952,15.4312568 18.439005,15.4312568 18.2206675,15.6504295 L18.1196457,15.7518378 L16.4511561,14.0736946 L17.9762599,12.5460283 C18.1880798,12.333398 18.1880798,11.9801047 17.9762599,11.7609321 L13.2412691,7.01110001 C13.0294491,6.79846979 12.6775021,6.79846979 12.4591646,7.01110001 L7.99465164,11.4926908 C7.78283168,11.7053211 7.77631414,12.0586144 7.99465164,12.2777871 L12.7263836,17.0276191 C12.9447211,17.2402493 13.2901506,17.2402493 13.5084881,17.0276191 L15.0368506,15.4966815 L16.7085989,17.1748246 L16.607577,17.2762329 C16.3957571,17.4888631 16.3957571,17.8421564 16.607577,18.0613291 L25.8201159,27.3091082 C26.0384534,27.5282808 26.3838828,27.5217384 26.6022203,27.3091082 L28.2218283,25.6833048 C28.4271308,25.4674033 28.4271308,25.11411 28.2153108,24.8982086 Z M19.2305406,11.5432586 L12.8208967,5.10856621 C12.6152566,4.90212247 12.6152566,4.55910827 12.8208967,4.34631242 L15.0038455,2.1548328 C15.2094856,1.94838907 15.5511646,1.94838907 15.7631321,2.1548328 L22.1791033,8.5927012 C22.3847434,8.79914493 22.3847434,9.14215914 22.1791033,9.35495498 L19.9961545,11.5464346 C19.7810233,11.7560544 19.442508,11.7560544 19.2305406,11.5432586 L19.2305406,11.5432586 Z M9.58542659,21.249226 L3.1547365,14.7955218 C2.94842117,14.5820973 2.94842117,14.2444405 3.1547365,14.0310159 L5.31946041,11.8585449 C5.5321239,11.6514913 5.86857659,11.6514913 6.08124008,11.8585449 L12.5119302,18.3090636 C12.7182455,18.5161173 12.7182455,18.860145 12.5119302,19.0735695 L10.3472063,21.2460405 C10.1345428,21.4594651 9.79809008,21.4594651 9.58542659,21.249226 L9.58542659,21.249226 Z" id="形状" transform="translate(15.687500, 15.893547) scale(-1, 1) translate(-15.687500, -15.893547) "></path>
            </g>
        </g>
    </g>
</svg>