<?xml version="1.0" encoding="UTF-8"?>
<svg width="24px" height="40px" viewBox="0 0 24 40" version="1.1" xmlns="http://www.w3.org/2000/svg" xmlns:xlink="http://www.w3.org/1999/xlink">
    <title>路径</title>
    <g id="页面1" stroke="none" stroke-width="1" fill="none" fill-rule="evenodd">
        <g id="sell" transform="translate(-240.000000, -185.000000)" fill="#FFFFFF" fill-rule="nonzero">
            <path d="M263.52305,219.990883 C264.247554,220.752836 264.133612,221.901705 263.269977,222.54099 L260.518693,224.577955 C259.653226,225.218856 258.352874,225.118329 257.626446,224.354598 L240.477587,206.323566 C240.114328,205.941741 239.961733,205.462783 240.008079,204.999098 C239.961733,204.53711 240.114328,204.058152 240.477587,203.676327 L257.626446,185.645376 C258.352966,184.881725 259.653226,184.781118 260.518693,185.422018 L263.269977,187.458984 C264.133612,188.098187 264.247554,189.247057 263.52305,190.009091 L249.264605,204.999098 L263.52305,219.990883 Z" id="路径" transform="translate(252.000000, 205.000000) scale(-1, -1) rotate(-180.000000) translate(-252.000000, -205.000000) "></path>
        </g>
    </g>
</svg>