<?xml version="1.0" encoding="UTF-8"?>
<svg width="31px" height="31px" viewBox="0 0 31 31" version="1.1" xmlns="http://www.w3.org/2000/svg" xmlns:xlink="http://www.w3.org/1999/xlink">
    <!-- Generator: Sketch 54 (76480) - https://sketchapp.com -->
    <title>众彩</title>
    <desc>Created with Sketch.</desc>
    <g id="页面1" stroke="none" stroke-width="1" fill="none" fill-rule="evenodd">
        <g id="market-price" transform="translate(-14.000000, -704.000000)" fill="#FFFFFF" fill-rule="nonzero">
            <g id="众彩" transform="translate(14.000000, 704.000000)">
                <path d="M14.8415307,20.2277323 L17.1467483,20.2277323 L17.1467483,25.5042793 L14.8415307,25.5042793 L14.8415307,20.2277323 Z M24.3186291,6.73331328 L27.5474865,6.73331328 L28.9994138,6.73331328 C28.9994138,6.73331328 28.9994138,7.9281357 28.9994138,8.08885682 C29.0251372,9.1068563 28.2199183,14.6457745 23.4696494,15.2297831 C23.4696494,15.2297831 23.7925944,14.605266 23.8888231,13.8474423 C23.8888231,13.8474423 27.2984455,12.8006533 27.6971965,8.15633436 L24.273699,8.15633436 L24.3186291,6.73331328 Z M7.79258406,6.68508602 L4.4867203,6.68508602 L3.00057314,6.68508602 C3.00057314,6.68508602 3.00057314,7.87990844 3.00057314,8.04062956 C2.97484979,9.05862905 3.7992832,14.5975472 8.66178391,15.1815559 C8.66178391,15.1815559 8.33135576,14.5570388 8.23312375,13.799215 C8.23312375,13.799215 4.74231684,12.752426 4.33386122,8.1081071 L7.83854311,8.1081071 L7.79258406,6.68508602 Z M13.4195594,18.8648293 L18.581402,18.8648293 L18.581402,20.2267245 L13.4195594,20.2267245 L13.4195594,18.8648293 Z M13.4195594,25.5042872 L18.581402,25.5042872 L18.581402,27.0892248 L13.4195594,27.0892248 L13.4195594,25.5042872 Z M9.60900347,28.8927469 L11.1218639,27.0892248 L20.924051,27.0892248 L22.436927,28.8927469 L9.60900347,28.8927469 Z M4.49841274,3 L4.50275455,4.44128709 L6.51711901,4.44128709 C7.20872639,4.53539005 7.58410802,5.09160923 7.68450705,5.47956029 C7.76586301,5.78913518 7.7369671,6.75692299 7.7369671,6.75692299 L7.74664845,12.765145 C7.74664845,13.7436361 8.70889665,15.2920731 8.70889665,15.2920731 C10.450617,18.2409372 13.4195517,18.8657668 13.4195517,18.8657668 L18.6168613,18.8657668 C21.0458394,18.6729124 23.4013189,15.3198626 23.4013189,15.3198626 C24.0481833,14.5054599 24.247968,13.1907763 24.297271,12.4352963 C24.3881213,11.0388928 24.3196426,6.84046329 24.3196426,6.84046329 C24.3196426,6.84046329 24.3196426,6.84046329 24.3196426,5.6992354 C24.3196426,4.55799191 25.6101363,4.40580213 25.6101363,4.40580213 L27.5485,4.40580213 L27.5485,3 L4.49841274,3 Z" id="形状"></path>
            </g>
        </g>
    </g>
</svg>