<?xml version="1.0" encoding="UTF-8"?>
<svg width="14px" height="14px" viewBox="0 0 14 14" version="1.1" xmlns="http://www.w3.org/2000/svg" xmlns:xlink="http://www.w3.org/1999/xlink">
    <title>BUTTON</title>
    <g id="页面1" stroke="none" stroke-width="1" fill="none" fill-rule="evenodd">
        <g id="Collected" transform="translate(-818.000000, -793.000000)" fill="#FFFFFF" fill-rule="nonzero">
            <g id="button" transform="translate(818.000000, 793.000000)">
                <path d="M1.71667123,6.5365185 L0.472205477,6.5365185 C0.211410954,6.5365185 0,6.74739244 0,7.00706828 C0,7.26673047 0.211397255,7.47843758 0.472205477,7.47843758 L1.71667123,7.47843758 C1.97738356,7.47843758 2.18868493,7.26673047 2.18868493,7.00706828 C2.18868493,6.74739243 1.97738356,6.5365185 1.71667123,6.5365185 Z M3.33427397,3.32946992 C3.52271232,3.15022912 3.53049314,2.8516538 3.35053424,2.66356227 L2.49154795,1.76574657 C2.31153424,1.57758674 2.0119726,1.57120821 1.82353425,1.75044902 C1.63509589,1.92968983 1.6279863,2.22775977 1.80799999,2.4159196 L2.66698629,3.3137353 C2.8469589,3.50181316 3.14583561,3.50871072 3.33427397,3.32946992 Z M7.42599999,13.089755 L6.595,13.089755 C6.33920548,13.089755 6.13160274,13.2968456 6.13160274,13.5527243 C6.13160274,13.8078655 6.33920548,14 6.595,14 L7.42599999,14 C7.68179451,14 7.88939725,13.8078656 7.88939725,13.5527243 C7.88939725,13.2968319 7.68179451,13.089755 7.42599999,13.089755 Z M13.5279863,6.54952141 L12.2835205,6.54952141 C12.022726,6.54952141 11.8113151,6.76039535 11.8113151,7.02007119 C11.8113151,7.27974704 12.0227123,7.49144049 12.2835205,7.49144049 L13.5279863,7.49144049 C13.7886986,7.49144049 14,7.27973338 14,7.02007119 C14,6.76040901 13.7886986,6.54952141 13.5279863,6.54952141 Z M7.00369862,2.63546669 C4.63512327,2.63546669 2.71519176,4.68733201 2.71519176,7.04801653 C2.71519176,8.76561681 3.73098628,10.2466515 5.19619177,10.9267776 L5.19619177,12.0823024 C5.19619177,12.3114787 5.40750683,12.5109751 5.66820547,12.5109751 C5.67641095,12.5109751 5.68457533,12.5107702 5.69268492,12.5103878 C5.70116437,12.5107566 5.70968492,12.5109751 5.71828766,12.5109751 L8.28901369,12.5109751 C8.36998628,12.5109751 8.44609589,12.4942844 8.51235616,12.4634298 C8.68006849,12.3997537 8.79750683,12.2531022 8.79750683,12.082316 L8.79750683,10.9331562 C10.2700548,10.2559256 11.2922055,8.77098461 11.2922055,7.04804386 C11.2922055,4.68731835 9.37216438,2.63546669 7.00369862,2.63546669 Z M7.86199999,10.1542925 L7.86199999,11.2503754 C7.86199999,11.2935773 7.85895889,11.3320806 7.85319177,11.3665411 L7.85319177,11.6275691 L6.14041094,11.6275691 L6.14041094,11.3853352 C6.13460272,11.3462855 6.13160272,11.3016221 6.13160272,11.250389 L6.13160272,10.1505774 C4.77131506,9.77112997 3.77353423,8.52605997 3.77353423,7.04801653 C3.77353423,5.26937632 5.21972601,3.69147543 7.00369861,3.69147543 C8.7876712,3.69147543 10.2337534,5.26937632 10.2337534,7.04801653 C10.2337534,8.53103167 9.22928767,9.77940703 7.86199999,10.1542925 Z M12.2573014,1.76816412 C12.0731507,1.58455259 11.7741781,1.58441601 11.5898356,1.76823241 L10.7098767,2.64562863 C10.5254657,2.82949967 10.5255342,3.12766523 10.7096849,3.31127676 C10.8938356,3.49488829 11.1934657,3.4955439 11.3778767,3.31167286 L12.2578493,2.43427664 C12.4421644,2.25046024 12.441452,1.95177565 12.2573014,1.76816412 Z M6.99721917,2.18227689 C7.25764382,2.18227689 7.46915068,1.97158051 7.46915068,1.71164515 L7.46915068,0.470822953 C7.46915068,0.210791984 7.25765752,0 6.99721917,0 C6.73679451,0 6.52446574,0.210778326 6.52446574,0.470822953 L6.52446574,1.71164515 C6.52445205,1.97159417 6.73678081,2.18227689 6.99721917,2.18227689 Z" id="形状"></path>
            </g>
        </g>
    </g>
</svg>