<?xml version="1.0" encoding="UTF-8"?>
<svg width="25px" height="25px" viewBox="0 0 25 25" version="1.1" xmlns="http://www.w3.org/2000/svg" xmlns:xlink="http://www.w3.org/1999/xlink">
    <title>交易</title>
    <g id="页面1" stroke="none" stroke-width="1" fill="none" fill-rule="evenodd">
        <g id="Collected" transform="translate(-606.000000, -667.000000)" fill="#FFFFFF">
            <g id="矩形复制-7" transform="translate(599.000000, 654.000000)">
                <g id="Money" transform="translate(7.000000, 13.000000)">
                    <g id="编组-3" transform="translate(1.631810, 2.196355)">
                        <path d="M0.787544803,12.0864478 C0.787544803,14.6844239 2.79720785,16.7903699 5.27625535,16.7903699 L10.8682012,16.7903699 L16.4601246,16.7903699 C18.9391272,16.7903699 20.9488351,14.6844239 20.9488351,12.0864478 C20.9488351,11.9583835 20.715871,11.9007604 20.6477549,12.0071867 C19.9967796,13.0248802 18.495867,14.3138725 16.4601246,14.3138725 L10.8682012,14.3138725 L5.27625535,14.3138725 C3.24056901,14.3138725 1.73963398,13.0248802 1.08865873,12.0071867 C1.02057621,11.9007604 0.787544803,11.9583835 0.787544803,12.0864478 Z" id="路径" fill-rule="nonzero"></path>
                        <path d="M0.787544803,15.4573682 C0.787544803,18.0553444 2.79720785,20.1612903 5.27625535,20.1612903 L10.8682012,20.1612903 L16.4601246,20.1612903 C18.9391272,20.1612903 20.9488351,18.0553444 20.9488351,15.4573682 C20.9488351,15.3293039 20.715871,15.2716809 20.6477549,15.3781071 C19.9967796,16.3958007 18.495867,17.6847929 16.4601246,17.6847929 L10.8682012,17.6847929 L5.27625535,17.6847929 C3.24056901,17.6847929 1.73963398,16.3958007 1.08865873,15.3781071 C1.02057621,15.2716809 0.787544803,15.3293039 0.787544803,15.4573682 Z" id="路径" fill-rule="nonzero"></path>
                        <path d="M5.27625535,0.503607675 C2.79720785,0.503607675 0.787544803,2.43289658 0.787544803,4.81278418 L0.787544803,9.09766775 C0.787544803,11.47762 2.79720785,13.4068335 5.27624413,13.4068335 L16.4601246,13.4068335 C18.9392394,13.4068335 20.9488351,11.47762 20.9488351,9.09766775 L20.9488351,4.8127734 C20.9488351,2.43288581 18.9392394,0.503607675 16.4601246,0.503607675 L5.27625535,0.503607675 Z M11.42929,2.67931622 L11.42929,3.39805275 C11.7027647,3.43336636 11.9829725,3.50040621 12.254315,3.62109517 C12.7062159,3.82216084 13.0818088,4.14903261 13.3602211,4.61529511 C13.5913897,5.00240901 13.4520152,5.49615322 13.0487046,5.71810758 C12.6455061,5.94005116 12.1312121,5.8061546 11.8999313,5.4190407 C11.7872647,5.23040697 11.6687627,5.14164893 11.5465576,5.08726726 C11.4065098,5.02497827 11.2090065,4.98545245 10.9127516,4.97958121 C10.5179695,4.97176007 10.3225984,5.07539551 10.236864,5.14856514 C10.1537107,5.21937551 10.1026516,5.31969289 10.1026516,5.45958995 C10.1026516,5.65912587 10.1632492,5.80626233 10.2604298,5.90154876 C10.350204,5.98957424 10.5796893,6.14007186 11.1502044,6.14007186 C11.6643862,6.14007186 12.2814717,6.2307367 12.7870127,6.59351459 C13.3376653,6.98864355 13.6123744,7.60022189 13.6123744,8.34011642 C13.6123744,9.03399983 13.2325173,9.6116435 12.7447066,9.9920351 C12.384151,10.2731004 11.9375243,10.4714298 11.4558856,10.5562126 L11.4558856,11.2311357 C11.4558856,11.5285759 11.2047423,11.7697814 10.8947968,11.7697814 C10.5849636,11.7697814 10.333708,11.5285759 10.333708,11.2311357 L10.333708,10.5508262 C9.92792854,10.4782167 9.55637553,10.3285809 9.22847522,10.1018111 C8.75255969,9.77291402 8.41939637,9.31721975 8.19303069,8.81401692 C8.0087579,8.40432299 8.20531854,7.92884964 8.63203781,7.75194762 C9.05880196,7.57504559 9.55413117,7.76374396 9.73839274,8.17340557 C9.87451289,8.4760706 10.0387997,8.67073716 10.2120639,8.79053197 C10.3785951,8.90558669 10.6025817,8.98627582 10.9301454,8.98627582 C11.2216871,8.98627582 11.4944885,8.88511815 11.683351,8.73774469 C11.8734479,8.58961711 11.9291079,8.44019679 11.9291079,8.34011642 C11.9291079,8.00418463 11.8237354,7.9197573 11.779185,7.88780484 C11.689523,7.82350131 11.4963962,7.756009 11.1502044,7.756009 C10.2633474,7.756009 9.54818363,7.51297206 9.057792,7.03210148 C8.57469453,6.55850262 8.41940759,5.96142462 8.41940759,5.45958995 C8.41940759,4.8981272 8.64606503,4.34349448 9.11917512,3.94023198 C9.44426998,3.66309876 9.85016163,3.48694006 10.3071124,3.4092889 L10.3071124,2.67931622 C10.3071124,2.38183297 10.5583679,2.14067051 10.8682012,2.14067051 C11.1781466,2.14067051 11.42929,2.38183297 11.42929,2.67931622 Z" id="形状"></path>
                    </g>
                </g>
            </g>
        </g>
    </g>
</svg>