<?xml version="1.0" encoding="UTF-8"?>
<svg width="24px" height="24px" viewBox="0 0 24 24" version="1.1" xmlns="http://www.w3.org/2000/svg" xmlns:xlink="http://www.w3.org/1999/xlink">
    <title>guanbi</title>
    <g id="web-首页" stroke="none" stroke-width="1" fill="none" fill-rule="evenodd">
        <g id="开启成功" transform="translate(-1430.000000, -224.000000)" fill="#FFFFFF" fill-rule="nonzero">
            <g id="guanbi" transform="translate(1430.000000, 224.000000)">
                <path d="M15.7422771,12 L23.2268314,4.51544571 C24.2577229,3.48455427 24.2577229,1.80406001 23.2268314,0.773168577 C22.19594,-0.257722859 20.5154457,-0.257722859 19.4845543,0.773168577 L12,8.25772287 L4.51544571,0.773168577 C3.48455427,-0.257722859 1.80406001,-0.257722859 0.773168577,0.773168577 C-0.257722859,1.80406001 -0.257722859,3.48455427 0.773168577,4.51544571 L8.25772287,12 L0.773168577,19.4845543 C-0.257722859,20.5154457 -0.257722859,22.19594 0.773168577,23.2268314 C1.80406001,24.2577229 3.48455427,24.2577229 4.51544571,23.2268314 L12,15.7422771 L19.4845543,23.2268314 C20.5154457,24.2577229 22.19594,24.2577229 23.2268314,23.2268314 C24.2577229,22.19594 24.2577229,20.5154457 23.2268314,19.4845543 L15.7422771,12 Z" id="路径"></path>
            </g>
        </g>
    </g>
</svg>