<?xml version="1.0" encoding="UTF-8"?>
<svg width="22px" height="20px" viewBox="0 0 22 20" version="1.1" xmlns="http://www.w3.org/2000/svg" xmlns:xlink="http://www.w3.org/1999/xlink">
    <!-- Generator: Sketch 54 (76480) - https://sketchapp.com -->
    <title>勋章，奖牌</title>
    <desc>Created with Sketch.</desc>
    <g id="页面1" stroke="none" stroke-width="1" fill="none" fill-rule="evenodd">
        <g id="market-2" transform="translate(-502.000000, -307.000000)" fill="#FFFFFF" fill-rule="nonzero">
            <g id="编组-7" transform="translate(257.000000, 251.000000)">
                <g id="编组-8" transform="translate(18.000000, 41.000000)">
                    <g id="勋章，奖牌" transform="translate(227.000000, 15.000000)">
                        <path d="M14.4016507,19.9910908 C14.2039364,19.9783025 13.6238532,19.7109642 13.2747976,19.5323763 C12.6013396,19.1879248 11.8361131,18.7966044 10.9996508,18.7966044 C10.1631885,18.7966044 9.39796195,19.1879248 8.724504,19.5323763 C8.37530875,19.7109642 7.79850801,20.0448014 7.61706612,19.9949912 C7.42368178,19.9140416 7.09927938,19.2698975 6.92524045,18.9233999 C6.59120027,18.2588585 6.24528744,17.572769 5.60828544,17.1325335 C4.95410303,16.6797655 4.10772356,16.570426 3.36114409,16.4747699 C2.99155581,16.4280289 2.22137074,16.3293675 2.11402811,16.1878655 C1.99481286,16.0327441 2.13770355,15.2832248 2.20642518,14.9230438 C2.33856065,14.2302404 2.48780673,13.4445304 2.24504618,12.7312019 C2.00759341,12.0362245 1.43295769,11.5170855 0.876549938,11.0154664 C0.527354686,10.7001721 0,10.2229786 0,9.99752181 C0,9.77206497 0.527424522,9.29589452 0.876549938,8.98085604 C1.43295769,8.47930091 2.00794259,7.96003408 2.24539539,7.26416151 C2.48815594,6.55083299 2.3389099,5.76422777 2.20677439,5.07129652 C2.13805276,4.71117942 1.99516207,3.96166014 2.11437732,3.80525987 C2.22171995,3.66458915 2.99190503,3.56707874 3.36149327,3.51931462 C4.10807274,3.42468159 4.95445221,3.31636512 5.60765688,2.86442837 C6.24563662,2.42233861 6.59154945,1.73624905 6.92558967,1.07260289 C7.09962859,0.726233169 7.42291356,0.0820251302 7.59911749,0.00401680922 C7.60449511,0.00401680922 7.61092027,0.00299373555 7.6162979,0.00299373555 C7.82791022,0.00299373555 8.38760041,0.289002923 8.72485318,0.461708247 C9.3994286,0.806990957 10.1635377,1.1975441 11,1.19754407 C11.8364623,1.19754404 12.6005714,0.807502463 13.2751468,0.46273129 C13.6263674,0.284143401 14.239694,-0.00666140119 14.3837021,0.000116391605 C14.5770864,0.0820890684 14.9005111,0.726233169 15.0744103,1.07170769 C15.4084505,1.73528994 15.7532459,2.42233861 16.3923431,2.86442837 C17.0455478,3.31630115 17.8919273,3.42468156 18.6385067,3.51931462 C19.008095,3.56707874 19.7782801,3.66471702 19.8867401,3.80621898 C20.004838,3.96140439 19.8619472,4.71181884 19.7932256,5.07225562 C19.66116,5.76614601 19.5118441,6.55179207 19.7546046,7.26544033 C19.9920574,7.96028983 20.5666931,8.47955669 21.1234501,8.98111179 C21.4726453,9.29640608 22,9.77257654 22,9.99777759 C22,10.2229786 21.4725755,10.7004279 21.1234501,11.0157222 C20.5670423,11.5173413 19.9920574,12.0364802 19.7546046,12.7323528 C19.5118441,13.4447862 19.66116,14.2304962 19.7932256,14.9232996 C19.8619472,15.2834806 20.0048379,16.033895 19.8856227,16.1901035 C19.77828,16.3296233 19.0091426,16.4282846 18.6395543,16.4750257 C17.8922764,16.5709375 17.0455478,16.6789982 16.3923431,17.1318941 C15.7540142,17.5723853 15.4081013,18.2584748 15.0740612,18.9230162 C14.9000222,19.2697696 14.5756198,19.9139137 14.4016507,19.9910908 Z M10.2028226,13.6821198 L16.3538282,7.62864384 L15.3310784,6.62329624 L10.2100761,11.6714246 L7.64232143,9.14736041 L6.57605041,10.152708 L10.2028226,13.6821198 Z" id="形状"></path>
                    </g>
                </g>
            </g>
        </g>
    </g>
</svg>