<?xml version="1.0" encoding="UTF-8"?>
<svg width="16px" height="16px" viewBox="0 0 16 16" version="1.1" xmlns="http://www.w3.org/2000/svg" xmlns:xlink="http://www.w3.org/1999/xlink">
    <title>fuzhi-3</title>
    <g id="web" stroke="none" stroke-width="1" fill="none" fill-rule="evenodd">
        <g id="Collected" transform="translate(-628.000000, -334.000000)" fill="#FFFFFF" fill-rule="nonzero">
            <g id="编组-11" transform="translate(240.000000, 240.000000)">
                <g id="fuzhi-3" transform="translate(388.000000, 94.000000)">
                    <path d="M13.0015488,0 L5.87196696,0 C4.23335054,0 2.89726381,1.30520681 2.87454827,2.91938054 C1.27826536,2.98362118 0,4.28576891 0,5.8775094 L0,13.0388121 C0,14.6713403 1.34537945,16 2.99845121,16 L10.128033,16 C11.7666495,16 13.1027362,14.6947932 13.1254517,13.0806195 C14.7217346,13.0163788 16,11.7142311 16,10.1224906 L16,2.96118794 C16,1.32865974 14.6556531,0 13.0015488,0 Z M11.8884874,13.0388121 C11.8884874,13.9973233 11.0986061,14.7763686 10.1290656,14.7763686 L2.99845121,14.7763686 C2.02787816,14.7763686 1.23902943,13.9963036 1.23902943,13.0388121 L1.23902943,5.87648971 C1.23902943,4.91797846 2.02891069,4.13893315 2.99845121,4.13893315 L10.128033,4.13893315 C11.0986061,4.13893315 11.8874548,4.91899815 11.8874548,5.87648971 L11.8874548,13.0388121 L11.8884874,13.0388121 Z M14.7609706,10.1224906 C14.7609706,11.0391944 14.0382034,11.7896884 13.1264843,11.853929 L13.1264843,5.87648971 C13.1264843,4.24396151 11.7811048,2.91530177 10.128033,2.91530177 L4.11461022,2.91530177 C4.13939081,1.97820407 4.91688178,1.22363138 5.87196696,1.22363138 L13.0025813,1.22363138 C13.9731544,1.22363138 14.7620031,2.00369639 14.7620031,2.96118794 L14.7620031,10.1224906 L14.7609706,10.1224906 Z" id="形状"></path>
                </g>
            </g>
        </g>
    </g>
</svg>