<?xml version="1.0" encoding="UTF-8"?>
<svg width="21px" height="21px" viewBox="0 0 21 21" version="1.1" xmlns="http://www.w3.org/2000/svg" xmlns:xlink="http://www.w3.org/1999/xlink">
    <title>详细描述</title>
    <g id="页面1" stroke="none" stroke-width="1" fill="none" fill-rule="evenodd">
        <g id="market-price" transform="translate(-253.000000, -1608.000000)" fill="#FFFFFF" fill-rule="nonzero">
            <g id="详细描述" transform="translate(253.000000, 1608.000000)">
                <path d="M15.855,11.1475 L5.05749999,11.1475 C4.52374999,11.13875 4.095,10.73275 4.095,10.234 L4.095,10.22 C4.095,9.7125 4.52724999,9.2925 5.05749999,9.2925 L15.855,9.2925 C16.1074407,9.28875809 16.3508826,9.38618506 16.5310409,9.56305587 C16.7111993,9.73992669 16.8130927,9.98153316 16.814,10.234 C16.814,10.73275 16.387,11.137 15.855,11.14925 L15.855,11.1475 Z M15.855,15.6975 L5.05749999,15.6975 C4.52374999,15.687 4.095,15.28275 4.095,14.784 L4.095,14.77 C4.095,14.259 4.52724999,13.8425 5.05749999,13.8425 L15.855,13.8425 C16.1074407,13.8387581 16.3508826,13.9361851 16.5310409,14.1130559 C16.7111993,14.2899267 16.8130927,14.5315332 16.814,14.784 C16.814,15.281 16.387,15.687 15.855,15.6975 L15.855,15.6975 Z M4.095,5.67 C4.095,5.16249999 4.52724999,4.74249999 5.05749999,4.74249999 L11.865,4.74249999 C12.118067,4.73876056 12.3621328,4.83631739 12.5428962,5.01346559 C12.7236597,5.19061379 12.8261267,5.43265905 12.8275,5.68575 C12.8275,6.1845 12.39875,6.58875 11.865,6.59925 L5.05749999,6.59925 C4.52374999,6.58875 4.095,6.1845 4.095,5.68575 L4.095,5.67 Z M19.0575,-1.3500312e-13 L1.91450001,-1.3500312e-13 C0.862749993,-1.3500312e-13 6.96331881e-13,0.833000007 6.96331881e-13,1.84974999 L6.96331881e-13,19.12575 C6.96331881e-13,20.14425 0.861,20.97725 1.91450001,20.97725 L19.0575,20.97725 C20.111,20.97725 20.972,20.14425 20.972,19.12575 L20.972,1.84974999 C20.972,0.833000007 20.111,-1.3500312e-13 19.0575,-1.3500312e-13 Z" id="形状"></path>
            </g>
        </g>
    </g>
</svg>