<?xml version="1.0" encoding="UTF-8"?>
<svg width="28px" height="30px" viewBox="0 0 28 30" version="1.1" xmlns="http://www.w3.org/2000/svg" xmlns:xlink="http://www.w3.org/1999/xlink">
    <!-- Generator: Sketch 54 (76480) - https://sketchapp.com -->
    <title>discord</title>
    <desc>Created with Sketch.</desc>
    <g id="页面1" stroke="none" stroke-width="1" fill="none" fill-rule="evenodd">
        <g id="首页" transform="translate(-1555.000000, -13.000000)" fill="#FFFFFF" fill-rule="nonzero">
            <g id="页头登录1440" transform="translate(240.000000, 0.000000)">
                <g id="编组" transform="translate(0.000000, 12.000000)">
                    <g id="discord" transform="translate(1315.500000, 1.000000)">
                        <path d="M23.4731273,0 C25.2034395,0 26.5990113,1.39880921 26.6814657,3.04490132 L26.6814657,29.5263158 L23.3869809,26.7299276 L21.5779063,25.0838355 L19.6039229,23.3639276 L20.4284671,26.0766579 L3.15242014,26.0766579 C1.42703063,26.0766579 0.0265361706,24.7664276 0.0265361706,23.0305263 L0.0265361706,3.05105262 C0.0265361706,1.40496052 1.42949197,0.00369078947 3.15857347,0.00369078947 L23.4645127,0.00369078947 L23.4731273,0 Z M15.9439312,6.99158554 L15.9070113,6.99158554 L15.6584174,7.23763816 C18.2095818,7.97579605 19.4439367,9.12855264 19.4439367,9.12855264 C17.799771,8.30673686 16.3180528,7.89582896 14.8363345,7.72974343 C13.7656577,7.5636579 12.6949809,7.65100658 11.7904436,7.72974343 L11.544311,7.72974343 C10.9658994,7.72974343 9.73523644,7.97579605 8.08614805,8.63398685 C7.51142845,8.88373026 7.18161076,9.04735527 7.18161076,9.04735527 C7.18161076,9.04735527 8.41473507,7.81463159 11.1320389,7.15644079 L10.9658994,6.99035526 C10.9658994,6.99035526 8.90823091,6.91161841 6.68688424,8.55278948 C6.68688424,8.55278948 4.46553756,12.4207369 4.46553756,17.1892369 C4.46553756,17.1892369 5.69620055,19.3298947 9.0719091,19.4110921 C9.0719091,19.4110921 9.5641743,18.7553619 10.0625928,18.1783684 C8.16737181,17.6026053 7.42897402,16.451079 7.42897402,16.451079 C7.42897402,16.451079 7.59388285,16.5322763 7.84124611,16.6971316 L7.91508588,16.6971316 C7.95200577,16.6971316 7.96923505,16.7155855 7.98892566,16.7340395 L7.98892566,16.7414211 C8.00861628,16.7611053 8.02584555,16.7783289 8.06276544,16.7783289 C8.46888423,16.9456447 8.87500301,17.1105 9.20728202,17.2704342 C9.91790533,17.574533 10.661201,17.795798 11.4224754,17.9298553 C12.566992,18.0959408 13.8788787,18.1759079 15.3729036,17.9298553 C16.1113014,17.7637697 16.8496991,17.601375 17.5880969,17.2716645 C18.0680555,17.0256118 18.6587737,16.7795592 19.3073331,16.3649605 C19.3073331,16.3649605 18.5689354,17.5164868 16.5937213,18.09225 C16.99984,18.6655526 17.5720983,19.3225132 17.5720983,19.3225132 C20.9490376,19.2486974 22.2609243,17.1080395 22.3347641,17.1990789 C22.3347641,12.4379605 20.1011108,8.56263158 20.1011108,8.56263158 C18.0889768,7.06909211 16.2060624,7.0125 15.8737834,7.0125 L15.9427005,6.98789475 L15.9439312,6.99158554 Z M16.1506826,12.4207369 C17.0158387,12.4207369 17.7136246,13.1588947 17.7136246,14.0631382 C17.7136246,14.9735329 17.0121467,15.7116908 16.1506826,15.7116908 C15.2892185,15.7116908 14.5877406,14.9735329 14.5877406,14.0705197 C14.5902019,13.160125 15.2929105,12.4244276 16.1506826,12.4244276 L16.1506826,12.4207369 Z M10.5597806,12.4207369 C11.4212447,12.4207369 12.1178,13.1588947 12.1178,14.0631382 C12.1178,14.9735329 11.4163221,15.7116908 10.554858,15.7116908 C9.69339389,15.7116908 8.99191599,14.9735329 8.99191601,14.0705197 C8.99191601,13.160125 9.69339392,12.4244276 10.554858,12.4244276 L10.5597806,12.4207369 Z" id="形状"></path>
                    </g>
                </g>
            </g>
        </g>
    </g>
</svg>