<?xml version="1.0" encoding="UTF-8"?>
<svg width="35px" height="43px" viewBox="0 0 35 43" version="1.1" xmlns="http://www.w3.org/2000/svg" xmlns:xlink="http://www.w3.org/1999/xlink">
    <title>ai-book</title>
    <g id="portal" stroke="none" stroke-width="1" fill="none" fill-rule="evenodd">
        <g id="传送门2" transform="translate(-1234.000000, -1769.000000)" fill="#FFFFFF" fill-rule="nonzero">
            <g id="ai-book" transform="translate(1234.000000, 1769.208955)">
                <path d="M33.3009379,4.78353844 C32.5103775,4.78353844 31.9833373,5.30923075 31.9833373,6.0977692 L31.9833373,36.5879231 C31.9833373,37.9021538 30.6657367,39.2163846 29.3481361,39.2163846 L6.15836569,39.2163846 C4.57724497,39.2163846 2.73260414,37.9021539 2.73260414,36.5879231 L2.73260414,33.6966154 C2.73260414,32.3823846 4.31372487,31.5938462 5.89484555,31.5938462 L28.0305355,31.5938462 C28.8210959,31.5938462 29.3481361,31.0681538 29.3481361,30.2796154 L29.3481361,4.52069231 C29.3481361,1.62938461 27.2399751,-0.210538462 24.0777337,-0.210538462 L6.15836569,-0.210538462 C3.25964438,-0.210538462 0.360923077,1.36653847 0.360923077,4.52069231 L0.360923077,36.8507692 C0.360923077,36.8507692 0.360923077,36.8507692 0.360923077,37.1136154 C0.360923077,37.3764615 0.360923077,37.3764615 0.360923077,37.6393077 C0.624443177,40.0049231 2.99612424,41.8448461 5.36780531,42.1076923 C5.36780531,42.1076923 5.63132541,42.1076923 5.63132541,42.1076923 C5.63132541,42.1076923 5.63132541,42.1076923 5.89484551,42.1076923 L29.3481361,42.1076923 C32.2468574,42.1076923 34.6185385,39.7420769 34.6185385,37.1136154 L34.6185385,6.09776924 C34.6185385,5.57207693 34.0914982,4.78353844 33.3009379,4.78353844 Z M28.2940556,34.2223077 L6.68540593,34.2223077 C5.89484559,34.2223077 5.36780535,34.748 5.36780535,35.5365385 C5.36780535,36.3250769 5.89484559,36.8507692 6.68540593,36.8507692 L28.2940557,36.8507692 C29.084616,36.8507692 29.6116562,36.3250769 29.6116562,35.5365385 C29.6116562,34.748 29.084616,34.2223077 28.2940556,34.2223077 Z" id="形状"></path>
            </g>
        </g>
    </g>
</svg>