<?xml version="1.0" encoding="UTF-8"?>
<svg width="18px" height="10px" viewBox="0 0 18 10" version="1.1" xmlns="http://www.w3.org/2000/svg" xmlns:xlink="http://www.w3.org/1999/xlink">
    <!-- Generator: Sketch 54 (76480) - https://sketchapp.com -->
    <title>下拉</title>
    <desc>Created with Sketch.</desc>
    <g id="页面1" stroke="none" stroke-width="1" fill="none" fill-rule="evenodd">
        <g id="MARKET" transform="translate(-410.000000, -210.000000)" fill="#FFFFFF" fill-rule="nonzero">
            <g id="下拉" transform="translate(419.000000, 215.000000) scale(-1, 1) rotate(-90.000000) translate(-419.000000, -215.000000) translate(414.000000, 206.000000)">
                <path d="M3.81507809,8.79807914 L9.66626016,15.3166271 C9.96357213,15.6479304 9.9168141,16.1474679 9.5624077,16.4254338 L8.43337398,17.3111228 C8.07821588,17.5897915 7.54459539,17.5460815 7.2464941,17.2140052 L0.209183889,9.37396855 C0.0601144412,9.20794796 -0.00250524687,8.99969314 0.0165136922,8.79807914 C-0.00250524687,8.597203 0.0601144412,8.38894821 0.209183889,8.22292762 L7.2464941,0.382926091 C7.54463296,0.0508849054 8.07821584,0.00713980622 8.43337398,0.285808452 L9.5624077,1.17149752 C9.91681406,1.44942827 9.96357213,1.94896576 9.66626016,2.28030422 L3.81507809,8.79807914 L3.81507809,8.79807914 Z" id="路径"></path>
            </g>
        </g>
    </g>
</svg>