<?xml version="1.0" encoding="UTF-8"?>
<svg width="44px" height="44px" viewBox="0 0 44 44" version="1.1" xmlns="http://www.w3.org/2000/svg" xmlns:xlink="http://www.w3.org/1999/xlink">
    <title>形状</title>
    <g id="web" stroke="none" stroke-width="1" fill="none" fill-rule="evenodd">
        <g id="鼠标交互" transform="translate(-1753.000000, -332.000000)" fill="#AAACC1" fill-rule="nonzero">
            <path d="M1797,354 C1797,341.85 1787.15,332 1775,332 C1762.85,332 1753,341.85 1753,354 C1753,366.15 1762.85,376 1775,376 C1787.15,376 1797,366.15 1797,354 Z M1769.092,354 L1769.092,349.79 L1771.672,349.79 L1771.672,347.244 C1771.672,343.81 1772.698,341.336 1776.458,341.336 L1780.93,341.336 L1780.93,345.536 L1777.782,345.536 C1776.204,345.536 1775.846,346.584 1775.846,347.682 L1775.846,349.79 L1780.698,349.79 L1780.036,354 L1775.846,354 L1775.846,366.698 L1771.672,366.698 L1771.672,354 L1769.092,354 Z" id="形状"></path>
        </g>
    </g>
</svg>