<?xml version="1.0" encoding="UTF-8"?>
<svg width="40px" height="40px" viewBox="0 0 40 40" version="1.1" xmlns="http://www.w3.org/2000/svg" xmlns:xlink="http://www.w3.org/1999/xlink">
    <title>形状</title>
    <g id="页面1" stroke="none" stroke-width="1" fill="none" fill-rule="evenodd">
        <g id="listing123" transform="translate(-702.000000, -357.000000)" fill="#0CD68A" fill-rule="nonzero">
            <g id="编组-8" transform="translate(702.000000, 245.000000)">
                <path d="M19.9999542,112 C8.95376327,112 0,120.954415 0,131.999977 C0,143.045585 8.95376327,152 19.9999542,152 C31.0455495,152 40,143.045585 40,131.999977 C40,120.954415 31.0455495,112 19.9999542,112 L19.9999542,112 Z M30.9381586,127.249023 L17.9003793,140.286451 C17.595708,140.591764 17.1009035,140.591764 16.7961863,140.286451 L9.0618414,132.552097 C8.75717008,132.247426 8.75717008,131.75262 9.0618414,131.447628 L11.4928436,129.016944 C11.797515,128.711951 12.2923195,128.711951 12.5970367,129.016944 L17.3483516,133.767577 L27.4029633,123.713549 C27.7076346,123.408557 28.202485,123.408557 28.5072022,123.713549 L30.9382044,126.144233 C31.2434713,126.449226 31.2434713,126.944031 30.9381586,127.249023 L30.9381586,127.249023 L30.9381586,127.249023 Z" id="形状"></path>
            </g>
        </g>
    </g>
</svg>