<?xml version="1.0" encoding="UTF-8"?>
<svg width="50px" height="50px" viewBox="0 0 50 50" version="1.1" xmlns="http://www.w3.org/2000/svg" xmlns:xlink="http://www.w3.org/1999/xlink">
    <title>kuangshan</title>
    <g id="web-首页" stroke="none" stroke-width="1" fill="none" fill-rule="evenodd">
        <g id="首页复制" transform="translate(-1303.000000, -473.000000)" fill="#FFFFFF" fill-rule="nonzero">
            <g id="编组-10" transform="translate(1261.000000, 115.000000)">
                <g id="kuangshan" transform="translate(42.000000, 358.000000)">
                    <path d="M18.8834659,33.1066613 C20.9399137,33.1005904 22.6588396,34.6642312 22.8399509,36.7057413 C23.0210621,38.7472513 21.6040839,40.5872057 19.5784648,40.9407996 L19.2814567,40.9802662 L19.0814712,40.9960529 L18.8834659,40.9999998 C16.8872413,41.0006824 15.2025868,39.5205141 14.9530589,37.5466718 L14.9273182,37.2506723 L14.9233581,37.0533393 L14.9273182,36.8638996 L14.9431586,36.6547266 C15.1484314,34.639582 16.8510622,33.106449 18.8834659,33.1066613 Z M34.723897,33.1066613 C36.7803448,33.1005904 38.4992708,34.6642312 38.680382,36.7057413 C38.8614933,38.7472513 37.444515,40.5872057 35.418896,40.9407996 L35.1218879,40.9802662 L34.9219024,40.9960529 L34.723897,40.9999998 C32.7276725,41.0006824 31.043018,39.5205141 30.79349,37.5466718 L30.7677493,37.2506723 L30.7637892,37.0533393 L30.7677493,36.8560063 L30.7835898,36.6547266 C30.9888625,34.639582 32.6914933,33.106449 34.723897,33.1066613 Z M40.0185612,19.2933683 L40.2027062,19.3012616 C41.2861142,19.4014107 42.0854581,20.3540174 41.9926749,21.4344314 L41.959014,21.6653111 L41.923373,21.8093642 L39.093876,31.6760147 L39.0423946,31.8319078 C38.8042914,32.4591267 38.2628625,32.9229068 37.6048755,33.0632658 L37.3553887,33.1007591 L37.1910442,33.1066791 L16.4163187,33.1066791 L16.2519742,33.1007591 C15.5808676,33.0451205 14.9841429,32.653363 14.6679311,32.0608141 L14.5649683,31.8319078 L14.5134869,31.6740414 L12.0958411,23.2400285 L8.98319636,23.2400285 L8.83469232,23.2341085 C7.84496429,23.1614792 7.06206328,22.3698812 7.00349365,21.3825677 C6.94492403,20.3952541 7.62877965,19.5172349 8.60302602,19.3288882 L8.83469232,19.2992882 L8.98319636,19.2933683 L40.0185612,19.2933683 Z M22.8435736,12.3867128 L24.5939413,8 L36.7039509,10.4133827 L38.6840048,17.3200381 L12.9433042,17.3200381 L15.913385,10.4133827 L20.8635198,10.4133827 L22.8435736,12.3867128 Z" id="形状结合"></path>
                </g>
            </g>
        </g>
    </g>
</svg>