<?xml version="1.0" encoding="UTF-8"?>
<svg width="31px" height="31px" viewBox="0 0 31 31" version="1.1" xmlns="http://www.w3.org/2000/svg" xmlns:xlink="http://www.w3.org/1999/xlink">
    <!-- Generator: Sketch 54 (76480) - https://sketchapp.com -->
    <title>更多</title>
    <desc>Created with Sketch.</desc>
    <g id="页面1" stroke="none" stroke-width="1" fill="none" fill-rule="evenodd">
        <g id="market-price" transform="translate(-14.000000, -825.000000)" fill="#FFFFFF" fill-rule="nonzero">
            <g id="更多-(3)" transform="translate(14.000000, 825.000000)">
                <path d="M12.8589275,4.47649816 L5.16701897,4.47649816 C4.52989844,4.47649816 4.01324554,4.98547564 4.01324554,5.61279412 L4.01324554,13.1859099 C4.01324554,13.8132537 4.52989844,14.3222312 5.16701897,14.3222312 L12.8589275,14.3222312 C13.4952779,14.3222312 14.0126496,13.8132537 14.0126496,13.1859352 L14.0126496,5.61279412 C14.0126496,4.98545037 13.4952522,4.47649816 12.8589275,4.47649816 Z M24.6838538,16.1202711 L16.9916886,16.1202711 C16.3545681,16.1202711 15.8381975,16.6287178 15.8381975,17.2560363 L15.8381975,24.8296576 C15.8381975,25.4570267 16.3545681,25.9654733 16.9917143,25.9654733 L24.6838795,25.9654733 C25.3204866,25.9654733 25.8373705,25.4570267 25.8373705,24.8296829 L25.8373705,17.2560616 C25.8373705,16.6287178 25.3204609,16.1202711 24.6838538,16.1202711 Z M26.4233571,7.37595358 L20.2070424,4.14462776 C19.6927511,3.87700827 19.0550915,4.07127757 18.7828136,4.57719669 L15.5006417,10.6993084 C15.229365,11.2067693 15.4264051,11.8336075 15.9414922,12.1022381 L22.1580123,15.3330584 C22.6728426,15.6006778 23.3115033,15.4064085 23.5832935,14.8999586 L26.8644643,8.77888327 C27.1365368,8.27144761 26.939471,7.64359835 26.4233571,7.37597886 L26.4233571,7.37595358 Z M12.8589275,16.1202711 L5.16701897,16.1202711 C4.52989844,16.1202711 4.01324554,16.6287178 4.01324554,17.2560363 L4.01324554,24.8296576 C4.01324554,25.4570267 4.52989844,25.9654733 5.16701897,25.9654733 L12.8589275,25.9654733 C13.4952779,25.9654733 14.0126496,25.4570267 14.0126496,24.8296829 L14.0126496,17.2560616 C14.0126496,16.6287178 13.4952522,16.1202711 12.8589275,16.1202711 Z" id="形状"></path>
            </g>
        </g>
    </g>
</svg>