<?xml version="1.0" encoding="UTF-8"?>
<svg width="50px" height="50px" viewBox="0 0 50 50" version="1.1" xmlns="http://www.w3.org/2000/svg" xmlns:xlink="http://www.w3.org/1999/xlink">
    <title>liwu</title>
    <g id="web-首页" stroke="none" stroke-width="1" fill="none" fill-rule="evenodd">
        <g id="首页复制" transform="translate(-1303.000000, -390.000000)" fill="#FFFFFF" fill-rule="nonzero">
            <g id="liwu" transform="translate(1303.000000, 390.000000)">
                <path d="M37.2747497,25.5058849 L12.7252898,25.5058849 C11.9715863,25.5058849 11.3636525,26.122012 11.3636525,26.8837568 L11.3636525,40.6221281 C11.3636525,41.3818416 11.9728903,42 12.7252898,42 L37.2747102,42 C38.0284137,42 38.6363475,41.3838729 38.6363475,40.6221281 L38.6363475,26.8837169 C38.6363475,26.1219721 38.0271492,25.5058849 37.2747497,25.5058849 Z M26.3636723,39.9435479 C26.3636723,40.3200589 26.0620565,40.6254738 25.6758793,40.6254738 L24.324911,40.6254738 C23.9453722,40.6254738 23.6370785,40.3126506 23.6370785,39.9435479 L23.6370785,27.5622573 C23.6370785,27.1857463 23.9394055,26.880411 24.324911,26.880411 L25.6758793,26.880411 C26.0554181,26.880411 26.3636723,27.1931546 26.3636723,27.5622573 L26.3636723,39.9435479 Z" id="形状"></path>
                <path d="M38.6330677,15.8842812 L29.268675,15.8842812 L31.545868,15.2420258 C32.4061427,15.1990495 33.2584354,14.8829602 33.9695421,14.2822871 C35.7007209,12.8185421 35.9257571,10.2171787 34.4741844,8.47287265 C33.0213471,6.72852678 30.4419457,6.501019 28.7107668,7.96476394 C28.0782154,8.49900096 27.6467148,9.18558694 27.4242865,9.92650077 L25.0286284,15.1540816 C25.0153515,15.1718855 25.011321,15.1933538 24.9999802,15.211795 C24.9886395,15.1933538 24.9846881,15.1718855 24.9713321,15.1540816 L22.5756345,9.92650077 C22.3532457,9.18554712 21.9217846,8.49900096 21.2892332,7.96476394 C19.5581334,6.501019 16.9786924,6.72852678 15.5258156,8.47283279 C14.0742824,10.2171388 14.2993187,12.8185023 16.0304975,14.2822472 C16.7416041,14.8829204 17.5938573,15.1990494 18.454132,15.2419859 L20.7312856,15.8842413 L11.3669718,15.8842413 C10.6132683,15.8842413 10,16.5023997 10,17.2648216 L10,22.7507385 C10,23.5098147 10.6119248,24.1313188 11.3669718,24.1313188 L38.6330282,24.1313188 C39.3867317,24.1313188 40,23.5131604 40,22.7507385 L40,17.2648615 C40,16.5044311 39.3880752,15.8842812 38.6330677,15.8842812 Z M29.5530228,10.004368 C29.5616765,9.98624549 29.569698,9.96880004 29.5776405,9.95135456 L29.6275871,9.84265904 L29.6309853,9.84668185 C29.7494504,9.62988827 29.9092874,9.43121727 30.108323,9.26209997 C30.9732604,8.52923176 32.2636527,8.64262719 32.9901305,9.51645302 C33.7165294,10.3889246 33.6039915,11.6896462 32.7377501,12.4211602 C32.5799283,12.5553866 32.4061822,12.6614533 32.2250468,12.7392808 L32.2357157,12.7520263 L27.4883003,14.5238547 L29.5530228,10.004368 Z M17.7643633,12.7520662 L17.7750322,12.7393206 C17.5939364,12.6614534 17.4201902,12.5554265 17.2623289,12.4212001 C16.3960875,11.6896462 16.2835496,10.3889645 17.009988,9.51649287 C17.7364264,8.64266701 19.0267791,8.52923176 19.8917165,9.26213982 C20.0907916,9.43125712 20.2513004,9.62992812 20.3691332,9.84672171 L20.3724524,9.84269889 L20.422399,9.95139442 C20.430381,9.96883986 20.438363,9.98628531 20.4470562,10.0044079 L22.5118182,14.5239345 L17.7643633,12.7520662 Z M26.3636723,22.0716007 C26.3636723,22.4501033 26.0620565,22.7568325 25.6758793,22.7568325 L24.324911,22.7568325 C23.9453722,22.7568325 23.6370785,22.4454432 23.6370785,22.0716007 L23.6370785,17.9440392 C23.6370785,17.5655366 23.9394055,17.2588074 24.324911,17.2588074 L25.6758793,17.2588074 C26.055418,17.2588074 26.3636723,17.5701967 26.3636723,17.9440392 L26.3636723,22.0716007 Z" id="形状"></path>
            </g>
        </g>
    </g>
</svg>