<?xml version="1.0" encoding="UTF-8"?>
<svg width="14px" height="14px" viewBox="0 0 14 14" version="1.1" xmlns="http://www.w3.org/2000/svg" xmlns:xlink="http://www.w3.org/1999/xlink">
    <title>link</title>
    <g id="页面1" stroke="none" stroke-width="1" fill="none" fill-rule="evenodd">
        <g id="Collected" transform="translate(-818.000000, -755.000000)" fill="#FFFFFF" fill-rule="nonzero">
            <g id="line-linkslianjie" transform="translate(818.000000, 755.000000)">
                <path d="M10.0548583,7.96912492 L10.0550039,7.96927631 C10.265814,8.18840798 10.6143506,8.19515396 10.8334823,7.98434388 C10.8386483,7.97937411 10.8437166,7.97430393 10.8486846,7.96913624 L10.8488302,7.96898473 L10.8488302,7.96898473 C11.8416547,6.93769849 12.2293968,5.43456605 11.8659978,4.02580285 C11.5025989,2.61703965 10.4432677,1.51667034 9.08704427,1.13919338 C7.7308208,0.761716414 6.28374759,1.16447954 5.29092311,2.19576578 L5.19211588,2.29956709 C3.60262804,3.95064682 3.60262804,6.62755947 5.19211588,8.2786392 L5.49005537,8.58787081 C5.70126288,8.80708323 6.05018717,8.81357249 6.26939959,8.60236498 C6.27437383,8.59757238 6.27925754,8.5926867 6.28404813,8.58771052 C6.50562989,8.35754474 6.50555638,7.99336815 6.2838817,7.76329186 L5.98594221,7.45406025 L5.98594221,7.45406025 C5.43313713,6.87989824 5.12256973,6.10113227 5.12256973,5.28910314 C5.12256973,4.47707401 5.43313713,3.69830804 5.98594221,3.12414603 L6.08531085,3.02092787 C7.18290405,1.89075621 8.95351287,1.89478329 10.0463309,3.02993684 C11.139149,4.16509038 11.1430259,6.00429212 10.0550039,7.14440578 C9.83337521,7.37462031 9.83331089,7.73883211 10.0548583,7.96912492 Z" id="路径"></path>
                <path d="M2.94436693,5.85561579 L2.94450194,5.85547555 C3.16605778,5.6253366 3.16612212,5.2612445 2.94464765,5.03102725 C2.73383551,4.81189324 2.38529528,4.80514703 2.16616126,5.01595917 C2.16108859,5.0208392 2.15610996,5.02581607 2.15122813,5.03088702 L2.15109313,5.03102725 L2.15109313,5.03102725 C0.616302289,6.62527617 0.616302289,9.21006439 2.15109313,10.8043133 C3.68588398,12.3985622 6.17427159,12.3985622 7.70906243,10.8043133 L7.80787079,10.7005108 C9.3973764,9.04941187 9.3973764,6.3724681 7.80787079,4.72136918 L7.51045798,4.41243454 C7.29927557,4.19307089 6.95024903,4.18643868 6.73088538,4.39762109 C6.72590096,4.40241962 6.7210073,4.40731154 6.71620702,4.41229427 C6.49448797,4.64243999 6.49449717,5.00672822 6.71622785,5.23686274 L7.01403557,5.54595772 L7.01403557,5.54595772 C7.56684684,6.1201264 7.87741771,6.89890142 7.87741771,7.71093999 C7.87741771,8.52297856 7.56684684,9.30175358 7.01403557,9.87592226 L6.91466582,9.97914162 C6.20658432,10.7211245 5.1704443,11.0128833 4.1985443,10.7439537 C3.22664429,10.475024 2.4675401,9.68651195 2.20864024,8.67696036 C1.94974038,7.66740877 2.23061794,6.59112849 2.94492835,5.85561579 L2.94436693,5.85561579 Z" id="路径"></path>
            </g>
        </g>
    </g>
</svg>