<?xml version="1.0" encoding="UTF-8"?>
<svg width="24px" height="24px" viewBox="0 0 24 24" version="1.1" xmlns="http://www.w3.org/2000/svg" xmlns:xlink="http://www.w3.org/1999/xlink">
    <title>形状结合</title>
    <g id="页面1" stroke="none" stroke-width="1" fill="none" fill-rule="evenodd">
        <g id="market-price" transform="translate(-657.000000, -1469.000000)" fill="#FFFFFF">
            <path d="M669,1469 C675.627417,1469 681,1474.37258 681,1481 C681,1487.62742 675.627417,1493 669,1493 C662.372583,1493 657,1487.62742 657,1481 C657,1474.37258 662.372583,1469 669,1469 Z M665.330105,1479.10526 L663.196211,1479.10526 C662.913441,1479.10526 662.684211,1479.33449 662.684211,1479.61726 L662.684211,1479.61726 L662.684211,1486.17221 C662.684211,1486.45498 662.913441,1486.68421 663.196211,1486.68421 L663.196211,1486.68421 L665.330105,1486.68421 C665.612875,1486.68421 665.842105,1486.45498 665.842105,1486.17221 L665.842105,1486.17221 L665.842105,1479.61726 C665.842105,1479.33449 665.612875,1479.10526 665.330105,1479.10526 L665.330105,1479.10526 Z M670.382737,1474.68421 L668.248842,1474.68421 C667.966072,1474.68421 667.736842,1474.91344 667.736842,1475.19621 L667.736842,1475.19621 L667.736842,1486.17221 C667.736842,1486.45498 667.966072,1486.68421 668.248842,1486.68421 L668.248842,1486.68421 L670.382737,1486.68421 C670.665507,1486.68421 670.894737,1486.45498 670.894737,1486.17221 L670.894737,1486.17221 L670.894737,1475.19621 C670.894737,1474.91344 670.665507,1474.68421 670.382737,1474.68421 L670.382737,1474.68421 Z M675.435368,1481 L673.301474,1481 C673.018704,1481 672.789474,1481.22923 672.789474,1481.512 L672.789474,1481.512 L672.789474,1486.17221 C672.789474,1486.45498 673.018704,1486.68421 673.301474,1486.68421 L673.301474,1486.68421 L675.435368,1486.68421 C675.718138,1486.68421 675.947368,1486.45498 675.947368,1486.17221 L675.947368,1486.17221 L675.947368,1481.512 C675.947368,1481.22923 675.718138,1481 675.435368,1481 L675.435368,1481 Z" id="形状结合"></path>
        </g>
    </g>
</svg>