<?xml version="1.0" encoding="UTF-8"?>
<svg width="23px" height="24px" viewBox="0 0 23 24" version="1.1" xmlns="http://www.w3.org/2000/svg" xmlns:xlink="http://www.w3.org/1999/xlink">
    <title>仓库查看</title>
    <g id="页面1" stroke="none" stroke-width="1" fill="none" fill-rule="evenodd">
        <g id="market-price" transform="translate(-253.000000, -1488.000000)" fill="#FFFFFF" fill-rule="nonzero">
            <g id="仓库查看" transform="translate(253.000000, 1488.000000)">
                <path d="M16.7468354,17.3172047 C18.5158727,14.6135112 17.9448971,11.018131 15.424058,8.98779791 C12.9032189,6.9574648 9.24702499,7.14820004 6.95376423,9.42967368 C4.66050346,11.7111473 4.47115171,15.3461921 6.51509358,17.8509712 C8.55903545,20.3557503 12.1758526,20.9209443 14.8941632,19.1603543 L16.8051274,21.0614567 C17.3183379,21.5624846 18.1418553,21.5585484 18.6501963,21.0526378 C18.8968396,20.8109854 19.0364421,20.4815728 19.038122,20.1373053 C19.0397718,19.7930379 18.9033616,19.462306 18.6590668,19.2183071 L16.7468354,17.3172047 L16.7468354,17.3172047 Z M14.8840255,15.4727953 C14.7889841,15.4098031 14.7611054,15.506811 14.7737775,15.6920079 C14.4252609,16.3258162 13.9021341,16.8476466 13.2657886,17.1962598 C13.0706371,17.1824016 12.9679924,17.2088583 13.0389566,17.3096457 C11.3672365,18.0830227 9.37831616,17.5522837 8.32081443,16.0506197 C7.26331271,14.5489556 7.44214945,12.5093562 8.74505325,11.212256 C10.047957,9.91515566 12.0992488,9.73456016 13.6111538,10.783845 C15.1230587,11.8331298 15.6596344,13.8097444 14.8840255,15.4727953 Z M0.029688971,10.1058661 C0.029688971,8.71374017 0.937028249,6.91342518 2.06231751,6.09074804 C2.06231751,6.09074804 10.1674415,0.0246063115 11.4346591,0.0246063115 C12.7018767,0.0246063115 20.8196729,6.09956693 20.8196729,6.09956693 C21.9348244,6.91846458 22.8396229,8.70996064 22.8396229,10.1058661 L22.8396229,21.4381496 C22.8409635,22.1060779 22.5753666,22.7471809 22.1012558,23.2204226 C21.6271449,23.6936643 20.983357,23.960279 20.3115186,23.9616142 L2.55779959,23.9616142 C1.88575368,23.960948 1.24157397,23.6945476 0.767317353,23.2211604 C0.293060739,22.7477732 0.0276809117,22.1062816 0.029688971,21.4381496 L0.029688971,10.107126 L0.029688971,10.1058661 Z" id="形状"></path>
            </g>
        </g>
    </g>
</svg>