<?xml version="1.0" encoding="UTF-8"?>
<svg width="31px" height="31px" viewBox="0 0 31 31" version="1.1" xmlns="http://www.w3.org/2000/svg" xmlns:xlink="http://www.w3.org/1999/xlink">
    <!-- Generator: Sketch 54 (76480) - https://sketchapp.com -->
    <title>交易</title>
    <desc>Created with Sketch.</desc>
    <g id="页面1" stroke="none" stroke-width="1" fill="none" fill-rule="evenodd">
        <g id="market-price" transform="translate(-14.000000, -886.000000)" fill="#FFFFFF" fill-rule="nonzero">
            <g id="编组" transform="translate(14.000000, 886.000000)">
                <path d="M23.9778239,11.2080217 C22.7507406,11.2080217 21.6043864,11.5387303 20.6033447,12.1174705 C20.7002197,12.4316437 20.7970947,12.7623524 20.8616781,13.093061 C21.7658447,12.4977854 22.8314697,12.1670768 23.9778239,12.1670768 C27.2392822,12.1670768 29.8871989,14.8788878 29.8871989,18.2190453 C29.8871989,21.5592028 27.2392822,24.2710138 23.9778239,24.2710138 C22.0403239,24.2710138 20.3127197,23.3119587 19.2470947,21.8403051 C19.0694906,22.1214075 18.8595947,22.3859744 18.6658447,22.6505413 C19.9252197,24.2379429 21.8465739,25.2466043 23.9939697,25.2466043 C27.7882406,25.2466043 30.8559489,22.104872 30.8559489,18.2190453 C30.8236572,14.3497539 27.7559489,11.2080217 23.9778239,11.2080217 Z" id="路径"></path>
                <path d="M10.1892822,5.12298228 C4.57053223,5.12298228 0.0174072266,9.78597441 0.0174072266,15.5403051 C0.0174072266,21.2946358 4.57053223,25.957628 10.1892822,25.957628 C15.8080322,25.957628 20.3611572,21.2946358 20.3611572,15.5403051 C20.3611572,9.78597441 15.8080322,5.12298228 10.1892822,5.12298228 Z M10.1892822,24.5355807 C5.34553223,24.5355807 1.42209473,20.500935 1.42209473,15.5568406 C1.42209473,10.5962106 5.36167806,6.57810039 10.1892822,6.57810039 C15.0330322,6.57810039 18.9564697,10.6127461 18.9564697,15.5568406 C18.9564697,20.500935 15.0330322,24.5355807 10.1892822,24.5355807 Z" id="形状"></path>
                <path d="M23.9778239,23.3119587 C22.2017822,23.3119587 20.6517822,22.3529035 19.7799072,20.9308563 C20.6517822,19.3434547 21.1361572,17.5080217 21.1361572,15.5568406 C21.1361572,15.077313 21.1038656,14.5977854 21.0392822,14.1347933 C21.8627197,13.5229823 22.8799072,13.1426673 23.9778239,13.1426673 C26.7226156,13.1426673 28.9507406,15.4245571 28.9507406,18.2355807 C28.9507406,21.0300689 26.7226156,23.3119587 23.9778239,23.3119587 Z M26.0610644,18.0470977 C26.2092101,17.8345207 26.2975553,17.5684345 26.2975553,17.2793233 C26.2975553,16.583705 25.7872581,16.0197516 25.1579978,16.0197516 C25.1076059,16.0197516 25.0463703,16.0197516 24.9763639,16.0197516 L24.9763639,15.0457239 C24.9763639,14.990269 24.9317129,14.9450295 24.8773343,14.9450295 L24.5467574,14.9450295 C24.4922194,14.9450295 24.4477279,14.9904312 24.4477279,15.0457239 L24.4477279,16.0197516 L23.9192513,16.0197516 L23.9192513,15.0457239 C23.9192513,14.990269 23.8746003,14.9450295 23.8202217,14.9450295 L23.4899638,14.9450295 C23.4354257,14.9450295 23.3909342,14.9904312 23.3909342,15.0457239 L23.3909342,16.0197516 L22.3008118,16.0197516 C22.2461143,16.0197516 22.2017822,16.064829 22.2017822,16.120446 L22.2017822,16.4596612 C22.2017822,16.5115488 22.2398951,16.556464 22.2907653,16.5611664 C22.6629633,16.5958662 22.8624576,16.8497912 22.8624576,17.1617654 L22.8624576,19.2442421 C22.8624576,19.5249217 22.7200528,19.7477141 22.4087715,19.778198 C22.3645989,19.7825761 22.3279213,19.8145194 22.319629,19.8589481 L22.2564797,20.2014063 C22.2451575,20.2625364 22.2914032,20.3191264 22.3526388,20.3191264 L23.3906153,20.3191264 L23.3906153,21.293154 C23.3906153,21.3486089 23.4352663,21.3938484 23.4896448,21.3938484 L23.8199028,21.3938484 C23.8744408,21.3938484 23.9189324,21.3484468 23.9189324,21.293154 L23.9189324,20.3191264 L24.4474089,20.3191264 L24.4474089,21.293154 C24.4474089,21.3486089 24.4920599,21.3938484 24.5464385,21.3938484 L24.8766965,21.3938484 C24.9312345,21.3938484 24.975726,21.3484468 24.975726,21.293154 L24.975726,20.3191264 C25.1629413,20.3191264 25.3184225,20.3191264 25.4215982,20.3191264 C26.0510179,20.3191264 26.5611557,19.7627939 26.5611557,19.0764181 C26.5617936,18.6480211 26.363256,18.2705387 26.0610644,18.0470977 Z M23.9190918,16.8257932 C23.9190918,16.8257932 24.427316,16.8257932 24.7283913,16.8257932 C25.0294667,16.8257932 25.2734525,17.0738808 25.2734525,17.3800177 C25.2734525,17.6861545 25.0294667,17.9342422 24.7283913,17.9342422 C24.427316,17.9342422 23.9190918,17.9342422 23.9190918,17.9342422 L23.9190918,16.8257932 Z M24.9926296,19.5464874 C24.6915543,19.5464874 23.9190918,19.5464874 23.9190918,19.5464874 L23.9190918,18.4380384 C23.9190918,18.4380384 24.6915543,18.4380384 24.9926296,18.4380384 C25.293705,18.4380384 25.5376908,18.6861261 25.5376908,18.9922629 C25.5376908,19.2983998 25.293705,19.5464874 24.9926296,19.5464874 Z M10.1892822,8.00014764 C14.2580322,8.00014764 17.5679281,11.3899114 17.5679281,15.5403051 C17.5679281,19.6906988 14.2580322,23.0804626 10.1892822,23.0804626 C6.13667806,23.0804626 2.82678223,19.7072343 2.82678223,15.5403051 C2.82678223,11.3899114 6.12053223,8.00014764 10.1892822,8.00014764 Z M12.8480464,15.3261415 C13.0839821,14.9827478 13.22468,14.5529164 13.22468,14.0858905 C13.22468,12.9621995 12.4119845,12.0511978 11.4098292,12.0511978 C11.3295756,12.0511978 11.2320521,12.0511978 11.1205604,12.0511978 L11.1205604,10.4777684 C11.1205604,10.3881875 11.0494495,10.3151083 10.9628467,10.3151083 L10.4363723,10.3151083 C10.3495155,10.3151083 10.2786586,10.3884494 10.2786586,10.4777685 L10.2786586,12.0511978 L9.43701075,12.0511978 L9.43701075,10.4777685 C9.43701075,10.3881875 9.36589989,10.3151083 9.27929702,10.3151083 L8.7533306,10.3151083 C8.66647376,10.3151083 8.59561687,10.3884494 8.59561687,10.4777685 L8.59561687,12.0511978 L6.85949596,12.0511978 C6.77238515,12.0511978 6.70178223,12.1240151 6.70178223,12.213858 L6.70178223,12.761821 C6.70178223,12.8456395 6.76248043,12.9181948 6.84349602,12.9257909 C7.43625584,12.9818444 7.75396901,13.3920309 7.75396901,13.8959893 L7.75396901,17.2599902 C7.75396901,17.7133955 7.52717614,18.073291 7.03143185,18.1225343 C6.9610829,18.1296065 6.90267041,18.1812072 6.88946409,18.2529768 L6.78889302,18.8061785 C6.77086134,18.9049271 6.84451186,18.9963416 6.94203534,18.9963416 L8.59510895,18.9963416 L8.59510895,20.5697709 C8.59510895,20.6593519 8.66621981,20.7324311 8.75282268,20.7324311 L9.2787891,20.7324311 C9.36564594,20.7324311 9.43650283,20.65909 9.43650283,20.5697709 L9.43650283,18.9963416 L10.2781507,18.9963416 L10.2781507,20.5697709 C10.2781507,20.6593519 10.3492616,20.7324311 10.4358644,20.7324311 L10.9618308,20.7324311 C11.0486877,20.7324311 11.1195446,20.65909 11.1195446,20.5697709 L11.1195446,18.9963416 C11.4177023,18.9963416 11.6653204,18.9963416 11.8296373,18.9963416 C12.8320465,18.9963416 13.6444881,18.0976507 13.6444881,16.9888899 C13.645504,16.2968639 13.3293146,15.6870847 12.8480464,15.3261415 Z M9.4367568,13.3532649 C9.4367568,13.3532649 10.2461508,13.3532649 10.7256412,13.3532649 C11.2051315,13.3532649 11.5937016,13.7540218 11.5937016,14.2485506 C11.5937016,14.7430794 11.2051315,15.1438364 10.7256412,15.1438364 C10.2461508,15.1438364 9.4367568,15.1438364 9.4367568,15.1438364 L9.4367568,13.3532649 Z M11.1464651,17.7482326 C10.6669747,17.7482326 9.4367568,17.7482326 9.4367568,17.7482326 L9.4367568,15.9576611 C9.4367568,15.9576611 10.6669747,15.9576611 11.1464651,15.9576611 C11.6259555,15.9576611 12.0145255,16.358418 12.0145255,16.8529468 C12.0145255,17.3474757 11.6259555,17.7482326 11.1464651,17.7482326 Z" id="形状"></path>
            </g>
        </g>
    </g>
</svg>