<?xml version="1.0" encoding="UTF-8"?>
<svg width="32px" height="29px" viewBox="0 0 32 29" version="1.1" xmlns="http://www.w3.org/2000/svg" xmlns:xlink="http://www.w3.org/1999/xlink">
    <!-- Generator: Sketch 54 (76480) - https://sketchapp.com -->
    <title>勋章，奖牌</title>
    <desc>Created with Sketch.</desc>
    <g id="页面1" stroke="none" stroke-width="1" fill="none" fill-rule="evenodd">
        <g id="market-auction" transform="translate(-513.000000, -1326.000000)" fill="#FFFFFF" fill-rule="nonzero">
            <g id="勋章，奖牌" transform="translate(513.000000, 1326.000000)">
                <path d="M20.9478556,28.9870816 C20.6602711,28.9685387 19.8165137,28.5808981 19.3087965,28.3219456 C18.3292213,27.822491 17.2161645,27.2550763 15.9994921,27.2550763 C14.7828196,27.2550763 13.6697628,27.822491 12.6901876,28.3219456 C12.1822673,28.5808981 11.3432844,29.0649621 11.0793689,28.9927372 C10.7980826,28.8753603 10.3262245,27.9413514 10.073077,27.4389298 C9.5872004,26.4753449 9.08405445,25.480515 8.15750609,24.8421735 C7.20596805,24.18566 5.97487064,24.0271177 4.88893685,23.8884164 C4.35135391,23.8206419 3.23108471,23.6775829 3.07494998,23.472405 C2.90154598,23.2474789 3.10938698,22.160676 3.20934571,21.6384135 C3.40154276,20.6338486 3.61862797,19.494569 3.26552171,18.4602427 C2.92013587,17.4525255 2.08430209,16.699774 1.27498173,15.9724263 C0.767061362,15.5152496 0,14.823319 0,14.4964066 C0,14.1694942 0.767162941,13.479047 1.27498173,13.0222413 C2.08430209,12.2949863 2.92064377,11.5420494 3.26602966,10.5330342 C3.61913592,9.49870784 3.40205076,8.35813027 3.20985366,7.35337995 C3.10989492,6.83121017 2.90205392,5.74440721 3.07545792,5.51762681 C3.23159266,5.31365426 4.35186186,5.17226417 4.88944475,5.1030062 C5.97537853,4.9657883 7.20647594,4.80872943 8.15659183,4.15342114 C9.08456235,3.51239098 9.58770829,2.51756112 10.073585,1.55527419 C10.3267325,1.05303809 10.7969652,0.118936439 11.0532618,0.00582437337 C11.0610838,0.00582437337 11.0704295,0.00434091654 11.0782515,0.00434091654 C11.3860512,0.00434091654 12.2001461,0.419054238 12.6906955,0.669476958 C13.6718961,1.17013689 14.7833275,1.73643894 16,1.7364389 C17.2166724,1.73643885 18.3281039,1.17087857 19.3093045,0.67096037 C19.8201708,0.412007931 20.7122821,-0.00965903172 20.9217485,0.000168767827 C21.2030348,0.119029149 21.6734707,1.05303809 21.926415,1.55397615 C22.4122917,2.51617042 22.9138122,3.51239098 23.8434082,4.15342114 C24.7935241,4.80863667 26.0246215,4.96578826 27.1105552,5.1030062 C27.6481382,5.17226417 28.7684074,5.31383968 28.9261674,5.51901751 C29.0979461,5.74403636 28.8901051,6.83213732 28.7901463,7.35477065 C28.5980509,8.36091172 28.3808641,9.5000985 28.7339703,10.5348885 C29.0793562,11.5424203 29.91519,12.2953572 30.7250183,13.0226121 C31.2329386,13.4797888 32,14.170236 32,14.4967775 C32,14.823319 31.2328371,15.5156205 30.7250183,15.9727972 C29.9156979,16.7001449 29.0793562,17.4528963 28.7339703,18.4619116 C28.3808641,19.4949399 28.5980509,20.6342195 28.7901463,21.6387844 C28.8901051,22.1610469 29.0979461,23.2491478 28.9245421,23.4756501 C28.7684073,23.6779538 27.6496619,23.8210127 27.112079,23.8887872 C26.0251294,24.0278594 24.793524,24.1845475 23.8434082,24.8412464 C22.9149297,25.4799587 22.4117838,26.4747885 21.9259071,27.4383735 C21.6727596,27.9411659 21.2009016,28.8751748 20.9478556,28.9870816 Z M14.8404692,19.8390737 L23.7873865,11.0615336 L22.2997505,9.60377955 L14.8510198,16.9235656 L11.1161039,13.2636726 L9.56516423,14.7214266 L14.8404692,19.8390737 Z" id="形状"></path>
            </g>
        </g>
    </g>
</svg>