<?xml version="1.0" encoding="UTF-8"?>
<svg width="28px" height="27px" viewBox="0 0 28 27" version="1.1" xmlns="http://www.w3.org/2000/svg" xmlns:xlink="http://www.w3.org/1999/xlink">
    <!-- Generator: Sketch 54 (76480) - https://sketchapp.com -->
    <title>medium-circle-fill</title>
    <desc>Created with Sketch.</desc>
    <g id="页面1" stroke="none" stroke-width="1" fill="none" fill-rule="evenodd">
        <g id="首页" transform="translate(-1604.000000, -14.000000)" fill="#FFFFFF" fill-rule="nonzero">
            <g id="页头登录1440" transform="translate(240.000000, 0.000000)">
                <g id="编组" transform="translate(0.000000, 12.000000)">
                    <g id="medium-circle-fill" transform="translate(1364.750000, 2.000000)">
                        <path d="M13.365,0 C5.98441741,0 0,5.98441741 0,13.365 C0,20.7455826 5.98441741,26.73 13.365,26.73 C20.7455826,26.73 26.73,20.7455826 26.73,13.365 C26.73,5.98441741 20.7455826,0 13.365,0 Z M21.0021429,7.5685279 L19.7849732,8.73498214 C19.6775759,8.81553013 19.6268605,8.94679353 19.6477433,9.07507366 L19.6477433,17.6579096 C19.6268605,17.789173 19.6775759,17.9204364 19.7849732,17.9980011 L20.9782768,19.1644554 L20.9782768,19.4239989 L14.9878929,19.4239989 L14.9878929,19.1763884 L16.2199788,17.9801016 C16.3422924,17.8577879 16.3422924,17.8219888 16.3422924,17.64001 L16.3422924,10.6949833 L12.9115446,19.3941663 L12.4491395,19.3941663 L8.45753906,10.6949833 L8.45753906,16.5272545 C8.42173996,16.7718817 8.50825446,17.0194922 8.68128348,17.1955045 L10.2862768,19.137606 L10.2862768,19.3971496 L5.72785714,19.3971496 L5.72785714,19.137606 L7.33285045,17.1955045 C7.50587946,17.0194922 7.58046094,16.7688984 7.54167857,16.5272545 L7.54167857,9.78508929 C7.56256138,9.59714397 7.49096317,9.41516518 7.34776674,9.28688504 L5.92176897,7.5685279 L5.92176897,7.30898437 L10.3519085,7.30898437 L13.7707232,14.8118806 L16.7808315,7.31495089 L21.0021429,7.31495089 L21.0021429,7.5685279 Z" id="形状"></path>
                    </g>
                </g>
            </g>
        </g>
    </g>
</svg>