<?xml version="1.0" encoding="UTF-8"?>
<svg width="50px" height="50px" viewBox="0 0 50 50" version="1.1" xmlns="http://www.w3.org/2000/svg" xmlns:xlink="http://www.w3.org/1999/xlink">
    <title>paimai</title>
    <g id="web" stroke="none" stroke-width="1" fill="none" fill-rule="evenodd">
        <g id="首页复制" transform="translate(-1303.000000, -156.000000)" fill="#FFFFFF" fill-rule="nonzero">
            <g id="paimai" transform="translate(1303.000000, 156.000000)">
                <path d="M34.1239307,37.0467019 L10.7650437,37.0467019 C9.94732654,37.0467019 9.28293131,37.7110971 9.28293131,38.5288143 L9.28293131,38.7133686 C9.28293131,39.5310858 9.94732654,40.195481 10.7650437,40.195481 L34.1239307,40.195481 C34.9416479,40.195481 35.6060432,39.5310858 35.6060432,38.7133686 L35.6060432,38.5288143 C35.6060432,37.7110971 34.9416479,37.0467019 34.1239307,37.0467019 L34.1239307,37.0467019 Z M42.3550494,24.0739591 L29.8479512,19.207406 L31.4748677,15.0279625 C32.3913505,15.3272579 33.3820429,14.858704 33.7321079,13.9603873 C34.0955378,13.0234197 33.6327326,11.9700409 32.6957649,11.6037717 L18.6015003,6.12393074 C17.6645327,5.76050087 16.6111539,6.2233061 16.2448847,7.16027373 C15.8814549,8.09724136 16.3442601,9.15062012 17.2812277,9.51688929 L17.3465315,9.54244295 L11.4038853,24.8150154 C10.4867928,24.5026928 9.47884272,24.965498 9.12393074,25.876912 C8.76050087,26.8138796 9.2233061,27.8672584 10.1602737,28.2335276 L24.2545383,33.7162079 C25.191506,34.0796377 26.2448847,33.6168325 26.6111539,32.6798649 C26.9745838,31.7428972 26.5117786,30.6895185 25.5748109,30.3232493 L25.5322215,30.3062135 L27.2045667,26.0103589 L39.711665,30.876912 C41.477707,31.5640216 43.4680534,30.6895185 44.155163,28.9206372 L44.3113243,28.5202964 C44.9984339,26.7514151 44.1210914,24.7610687 42.3550494,24.0739591 L42.3550494,24.0739591 Z M20.6003646,15.3573209 L17.8348904,22.6628291 C17.6198985,23.2306439 17.0705246,23.6014428 16.4635105,23.5884395 C16.30451,23.5856002 16.1426701,23.554368 15.9865088,23.4947428 C15.6308853,23.3602012 15.3433602,23.0897648 15.187308,22.7430412 C15.0312557,22.3963177 15.0194868,22.0017698 15.1545951,21.6463612 L17.9200693,14.3380136 C18.2011596,13.5969574 19.0273947,13.2250097 19.7684509,13.5032607 C20.5068046,13.7890672 20.8777396,14.6157586 20.6003646,15.3573209 L20.6003646,15.3573209 Z" id="形状"></path>
            </g>
        </g>
    </g>
</svg>