<?xml version="1.0" encoding="UTF-8"?>
<svg width="50px" height="50px" viewBox="0 0 50 50" version="1.1" xmlns="http://www.w3.org/2000/svg" xmlns:xlink="http://www.w3.org/1999/xlink">
    <title>IOTtubiao_huabanfuben</title>
    <g id="web" stroke="none" stroke-width="1" fill="none" fill-rule="evenodd">
        <g id="首页复制" transform="translate(-1303.000000, -242.000000)" fill="#FFFFFF" fill-rule="nonzero">
            <g id="IOTtubiao_huabanfuben" transform="translate(1303.000000, 242.000000)">
                <path d="M43,28.343241 L36.1769816,24.9307818 L38.9991214,22.0443811 L34.8547442,22.2658795 C36.2794807,20.9368893 37.1883053,19.0506922 37.1883053,16.9395358 C37.1883053,12.9387215 33.9732526,9.68200326 30.0236236,9.68200326 C27.385982,9.68200326 25.1036704,11.1459691 23.8600156,13.2986564 L23.1151894,10.08693 L21.2052909,13.5651466 L16.1691722,8 L18.2020695,15.2125407 C12.3493752,16.6765065 8,22.0201547 8,28.4020765 C8,35.9122557 14.0098594,42 21.4239555,42 C28.8380515,42 34.847911,35.9122557 34.847911,28.4020765 L34.847911,28.384772 L43,28.343241 Z M22.0252831,37.3762215 C17.132663,37.3762215 13.1659508,33.3581026 13.1659508,28.4020765 C13.1659508,23.4460505 17.132663,19.4279316 22.0252831,19.4279316 C26.9179032,19.4279316 30.8846154,23.4460505 30.8846154,28.4020765 C30.8846154,33.3581026 26.9213198,37.3762215 22.0252831,37.3762215 Z M32.466517,20.7188518 C30.8572823,18.3412052 28.5339711,16.5069218 25.7938305,15.5482492 C26.378075,13.7381922 28.0419758,12.4161238 30.020207,12.4161238 C32.4836002,12.4161238 34.4857478,14.4442182 34.4857478,16.9395358 C34.4857478,18.5211726 33.6828387,19.9089984 32.466517,20.7188518 Z" id="形状"></path>
            </g>
        </g>
    </g>
</svg>