<?xml version="1.0" encoding="UTF-8"?>
<svg width="50px" height="50px" viewBox="0 0 50 50" version="1.1" xmlns="http://www.w3.org/2000/svg" xmlns:xlink="http://www.w3.org/1999/xlink">
    <title>menu_yhxy</title>
    <g id="web" stroke="none" stroke-width="1" fill="none" fill-rule="evenodd">
        <g id="首页复制" transform="translate(-1303.000000, -328.000000)" fill="#FFFFFF" fill-rule="nonzero">
            <g id="menu_yhxy" transform="translate(1303.000000, 328.000000)">
                <path d="M39.2892593,8 C40.233037,8 41,8.7548 41,9.68640003 L41,40.3136 C40.99249,41.2427677 40.2305822,41.9938349 39.2892593,42 L11.7107407,42 C10.7668207,42 10.001267,41.2453395 10,40.3136 L10,9.68640003 C10.00751,8.75723232 10.7694178,8.00616509 11.7107407,8 L39.2892593,8 Z M34.6851852,35.2 L16.3148148,35.2 L16.3148148,38.6 L34.6851852,38.6 L34.6851852,35.2 Z M34.6851852,29.5333333 L16.3148148,29.5333333 L16.3148148,32.9333333 L34.6851852,32.9333333 L34.6851852,29.5333333 Z M26.6481481,11.4 L16.8888889,11.4 L16.8888889,26.7 L21.7685185,23.3 L26.6481481,26.7 L26.6481481,11.4 Z" id="形状"></path>
            </g>
        </g>
    </g>
</svg>