<?xml version="1.0" encoding="UTF-8"?>
<svg width="31px" height="31px" viewBox="0 0 31 31" version="1.1" xmlns="http://www.w3.org/2000/svg" xmlns:xlink="http://www.w3.org/1999/xlink">
    <!-- Generator: Sketch 54 (76480) - https://sketchapp.com -->
    <title>碎片</title>
    <desc>Created with Sketch.</desc>
    <g id="页面1" stroke="none" stroke-width="1" fill="none" fill-rule="evenodd">
        <g id="market-price" transform="translate(-14.000000, -765.000000)" fill="#FFFFFF" fill-rule="nonzero">
            <g id="碎片" transform="translate(14.000000, 765.000000)">
                <polygon id="路径" points="15.3643053 7.79521135 15.3643053 23.1548712 10.9295227 18.4786212 10.9295227 12.4747568"></polygon>
                <polygon id="路径" points="20.3530856 12.4593471 20.3530856 18.4786212 16.0186465 23.1548712 16.0186465 7.77980164"></polygon>
                <polygon id="路径" points="15.3643053 6.96148459 15.33464 1 7.68979508 9.40877151 10.6760295 11.8885585"></polygon>
                <polygon id="路径" points="10.2964216 18.72625 7.33989983 20.4603173 7.33989983 9.82193182 10.2964216 12.27375"></polygon>
                <polygon id="路径" points="15.3643053 24.1452542 15.3643053 30 7.33989983 21.1853024 10.7703436 19.1968883"></polygon>
                <polygon id="路径" points="16 6.94522727 16 1 23.9208512 9.82193182 20.6077336 11.8885585"></polygon>
                <polygon id="路径" points="20.982976 18.72625 23.9394977 20.4603173 23.9394977 10.5462363 20.982976 12.380278"></polygon>
                <polygon id="路径" points="16.0186465 24.1628379 16.0186465 30 23.9394977 21.1780682 20.5986079 19.0768643"></polygon>
            </g>
        </g>
    </g>
</svg>