<?xml version="1.0" encoding="UTF-8"?>
<svg width="21px" height="21px" viewBox="0 0 21 21" version="1.1" xmlns="http://www.w3.org/2000/svg" xmlns:xlink="http://www.w3.org/1999/xlink">
    <title>tuichu</title>
    <g id="web-首页" stroke="none" stroke-width="1" fill="none" fill-rule="evenodd">
        <g id="首页复制备份" transform="translate(-1298.000000, -194.000000)" fill="#FFFFFF" fill-rule="nonzero">
            <g id="tuichu" transform="translate(1298.000000, 194.000000)">
                <path d="M20.8404847,10.112515 L16.5016505,5.77058263 C16.2889795,5.55776096 15.9441278,5.55776096 15.7313367,5.77058263 L14.854303,6.64821366 C14.641632,6.86103533 14.641632,7.20625162 14.854303,7.4190733 L16.7682219,9.33434821 L8.04438738,9.33434821 C7.7436359,9.33434821 7.49983529,9.57832156 7.49983529,9.87928612 L7.49983529,11.1205937 C7.49983529,11.4216304 7.7436359,11.6656518 8.04438738,11.6656518 L16.7640184,11.6656518 L14.8500995,13.5809267 C14.6374285,13.7937484 14.6374285,14.1389646 14.8500995,14.3517863 L15.7272293,15.2294414 C15.9399003,15.442239 16.2848241,15.442239 16.4974951,15.2294414 L19.963331,11.7611499 C19.963331,11.7610297 19.9634511,11.7610297 19.9634511,11.7610297 L20.8405808,10.8832785 C21.0531557,10.6704088 21.0531557,10.3253367 20.8404847,10.112515 L20.8404847,10.112515 Z M13.36563,0 L1.63389647,0 C0.73156998,0 0,0.732088306 0,1.63505411 L0,19.3649459 C0,20.2680319 0.73156998,21 1.63389647,21 L13.36563,21 C14.2679565,21 14.9995265,20.2680319 14.9995265,19.3649459 L14.9995265,17.0644575 C14.9995265,16.763517 14.7557259,16.5193994 14.4548543,16.5193994 L13.2743549,16.5193994 C12.9736034,16.5193994 12.7296587,16.763517 12.7296587,17.0644575 L12.7296587,17.9396127 C12.7296587,18.7459747 12.7296587,18.7459747 11.9130107,18.7459747 L3.06384112,18.7459747 C2.24695293,18.7459747 2.24695293,18.7461189 2.24695293,17.9283875 L2.24695293,3.05262339 C2.24695293,2.23282487 2.24519949,2.23513239 3.06384112,2.23513239 L11.9129867,2.23513239 C12.7298028,2.23513239 12.7296347,2.24183865 12.7296347,3.04151838 L12.7296347,3.94241701 C12.7296347,4.24345368 12.9735794,4.48747509 13.2743309,4.48747509 L14.4548303,4.48747509 C14.7557018,4.48747509 14.9995265,4.24345366 14.9995265,3.94241701 L14.9995265,1.63505411 C14.9995265,0.732088306 14.2679565,0 13.36563,0 L13.36563,0 Z" id="形状"></path>
            </g>
        </g>
    </g>
</svg>