<?xml version="1.0" encoding="UTF-8"?>
<svg width="54px" height="54px" viewBox="0 0 54 54" version="1.1" xmlns="http://www.w3.org/2000/svg" xmlns:xlink="http://www.w3.org/1999/xlink">
    <title>tianjia</title>
    <g id="个人中心" stroke="none" stroke-width="1" fill="none" fill-rule="evenodd">
        <g id="Edit-profile" transform="translate(-1227.000000, -526.000000)" fill="#FFFFFF" fill-rule="nonzero">
            <g id="tianjia" transform="translate(1227.000000, 526.000000)">
                <path d="M26.9934955,0 C12.0852807,0 0,12.0867365 0,26.9967474 C0,41.9067582 12.0852807,54 27,54 C41.9147193,54 54,41.9132635 54,26.9967474 C53.9934955,12.0867365 41.9082149,0 26.9934955,0 Z M39.4615385,27.3428909 C39.4615385,28.5371356 38.4957012,29.5094989 37.2949305,29.5094989 L29.5094989,29.5094989 L29.5094989,37.2949305 C29.5094989,38.4891752 28.5436616,39.4615385 27.3428909,39.4615385 C26.1486461,39.4615385 25.1762829,38.4957012 25.1762829,37.2949305 L25.1762829,29.5094989 L17.3973772,29.5094989 C16.2031324,29.5094989 15.2307692,28.5436616 15.2307692,27.3428909 C15.2307692,26.1486461 16.1966065,25.1762829 17.3973772,25.1762829 L25.1828088,25.1762829 L25.1828088,17.3973772 C25.1828088,16.2031324 26.1486461,15.2307692 27.3494168,15.2307692 C28.5436616,15.2307692 29.5160248,16.1966065 29.5160248,17.3973772 L29.5160248,25.1828088 L37.3014564,25.1828088 C38.4891752,25.1828088 39.4615385,26.1486461 39.4615385,27.3428909 Z" id="形状"></path>
            </g>
        </g>
    </g>
</svg>