<?xml version="1.0" encoding="UTF-8"?>
<svg width="26px" height="26px" viewBox="0 0 26 26" version="1.1" xmlns="http://www.w3.org/2000/svg" xmlns:xlink="http://www.w3.org/1999/xlink">
    <!-- Generator: Sketch 54 (76480) - https://sketchapp.com -->
    <title>reddit</title>
    <desc>Created with Sketch.</desc>
    <g id="页面1" stroke="none" stroke-width="1" fill="none" fill-rule="evenodd">
        <g id="首页" transform="translate(-1654.000000, -14.000000)" fill="#FFFFFF" fill-rule="nonzero">
            <g id="页头登录1440" transform="translate(240.000000, 0.000000)">
                <g id="编组" transform="translate(0.000000, 12.000000)">
                    <g id="reddit" transform="translate(1414.000000, 2.000000)">
                        <path d="M15.8872768,16.9319196 C16.0420387,17.0866815 16.0420387,17.2366071 15.8872768,17.3816964 C15.2875744,17.9813988 14.3251488,18.28125 13,18.28125 C11.6748512,18.28125 10.7124256,17.9813988 10.1127232,17.3816964 C9.9579613,17.2366071 9.9579613,17.0866815 10.1127232,16.9319196 C10.1707589,16.8738839 10.2433036,16.8448661 10.3303571,16.8448661 C10.4174107,16.844866 10.4899554,16.8738839 10.5479911,16.9319196 C11.0122768,17.405878 11.8296131,17.6428571 13,17.6428571 C14.1607143,17.6428571 14.9780506,17.405878 15.4520089,16.9319196 C15.5100446,16.8738839 15.5825893,16.8448661 15.6696429,16.8448661 C15.7566964,16.844866 15.8292411,16.8738839 15.8872768,16.9319196 L15.8872768,16.9319196 Z M11.4330357,14.3058036 C11.4330357,14.6636905 11.3072917,14.968378 11.0558036,15.2198661 C10.8043155,15.4713542 10.499628,15.5970982 10.1417411,15.5970982 C9.78385416,15.5970982 9.47674851,15.4713542 9.2204241,15.2198661 C8.9640997,14.968378 8.8359375,14.6636905 8.8359375,14.3058036 C8.8359375,13.938244 8.9640997,13.6287202 9.2204241,13.3772321 C9.47674851,13.1257441 9.78385416,13 10.1417411,13 C10.499628,13 10.8043155,13.1281622 11.0558036,13.3844866 C11.3072917,13.640811 11.4330357,13.9479167 11.4330357,14.3058036 L11.4330357,14.3058036 Z M17.1640625,14.3058036 C17.1640625,14.6636905 17.0359003,14.968378 16.7795759,15.2198661 C16.5232515,15.4713542 16.2161458,15.5970982 15.8582589,15.5970982 C15.500372,15.5970982 15.1956845,15.4713542 14.9441964,15.2198661 C14.6927083,14.968378 14.5669643,14.6636905 14.5669643,14.3058036 C14.5669643,13.9479167 14.6927083,13.640811 14.9441964,13.3844866 C15.1956845,13.1281622 15.500372,13 15.8582589,13 C16.2161458,13 16.5232515,13.125744 16.7795759,13.3772321 C17.0359003,13.6287202 17.1640625,13.938244 17.1640625,14.3058036 L17.1640625,14.3058036 Z M20.8058036,12.5647321 C20.8058036,12.0907738 20.6365327,11.6845238 20.2979911,11.3459821 C19.9594494,11.0074405 19.5483631,10.8381696 19.0647321,10.8381696 C18.5811012,10.8381696 18.1651786,11.0122768 17.8169643,11.3604911 C16.5595238,10.4899554 15.0554316,10.0256696 13.3046875,9.96763394 L14.21875,5.86160715 L17.1205357,6.51450894 C17.1205357,6.87239584 17.2462798,7.17708334 17.4977679,7.42857144 C17.749256,7.68005954 18.0539435,7.80580358 18.4118304,7.80580356 C18.7697173,7.80580354 19.0768229,7.67764134 19.3331473,7.42131696 C19.5894717,7.16499257 19.7176339,6.85788692 19.7176339,6.5 C19.717634,6.14211308 19.5894717,5.83500743 19.3331473,5.57868304 C19.0768229,5.32235866 18.7697172,5.19419646 18.4118304,5.19419644 C17.8895089,5.19419644 17.5026042,5.43601191 17.2511161,5.91964285 L14.0446429,5.20870535 C13.8608631,5.16034226 13.7399554,5.23772321 13.6819196,5.44084821 L12.6808036,9.96763394 C10.9397321,10.0353423 9.44531249,10.5044643 8.19754465,11.375 C7.85900298,11.0171131 7.43824405,10.8381696 6.93526785,10.8381696 C6.45163689,10.8381696 6.04055059,11.0074405 5.70200894,11.3459821 C5.36346729,11.6845238 5.19419646,12.0907738 5.19419644,12.5647321 C5.19419644,12.9032738 5.28366816,13.2127976 5.4626116,13.4933036 C5.64155505,13.7738095 5.88095237,13.9866071 6.18080356,14.1316964 C6.12276785,14.3928571 6.09375,14.6636905 6.09375,14.9441964 C6.09375,16.3177083 6.77083333,17.4929315 8.125,18.4698661 C9.47916667,19.4468006 11.109003,19.9352678 13.0145089,19.9352679 C14.9296875,19.9352679 16.5643601,19.4468006 17.9185268,18.4698661 C19.2726935,17.4929315 19.9497768,16.3177083 19.9497768,14.9441964 C19.9497768,14.6346726 19.9159226,14.359003 19.8482143,14.1171875 C20.1383929,13.9720982 20.3705357,13.7617187 20.5446429,13.4860491 C20.71875,13.2103795 20.8058036,12.9032738 20.8058036,12.5647321 L20.8058036,12.5647321 Z M26,13 C26,14.7604167 25.656622,16.4434524 24.9698661,18.0491071 C24.2831101,19.6547619 23.359375,21.0379464 22.1986607,22.1986607 C21.0379464,23.359375 19.6547619,24.2831101 18.0491071,24.9698661 C16.4434524,25.656622 14.7604167,26 13,26 C11.2395833,26 9.55654762,25.656622 7.95089285,24.9698661 C6.34523809,24.2831101 4.96205357,23.359375 3.80133929,22.1986607 C2.64062502,21.0379464 1.7168899,19.6547619 1.03013394,18.0491071 C0.34337798,16.4434524 -4.81096644e-16,14.7604167 0,13 C4.81096644e-16,11.2395833 0.34337798,9.55654762 1.03013394,7.95089285 C1.7168899,6.34523809 2.64062502,4.96205357 3.80133929,3.80133929 C4.96205357,2.64062502 6.34523809,1.7168899 7.95089285,1.03013394 C9.55654762,0.34337798 11.2395833,7.93809463e-15 13,0 C14.7604167,-7.93809463e-15 16.4434524,0.34337798 18.0491071,1.03013394 C19.6547619,1.7168899 21.0379464,2.64062502 22.1986607,3.80133929 C23.359375,4.96205357 24.2831101,6.34523809 24.9698661,7.95089285 C25.656622,9.55654762 26,11.2395833 26,13 Z" id="形状"></path>
                    </g>
                </g>
            </g>
        </g>
    </g>
</svg>