<?xml version="1.0" encoding="UTF-8"?>
<svg width="14px" height="14px" viewBox="0 0 14 14" version="1.1" xmlns="http://www.w3.org/2000/svg" xmlns:xlink="http://www.w3.org/1999/xlink">
    <title>sale</title>
    <g id="页面1" stroke="none" stroke-width="1" fill="none" fill-rule="evenodd">
        <g id="Collected" transform="translate(-818.000000, -715.000000)" fill-rule="nonzero">
            <g id="temai" transform="translate(818.000000, 715.000000)">
                <path d="M1.2782492,12.3286785 C1.28266591,12.2799725 1.28855495,12.23148 1.29356053,12.1828451 C1.28340208,12.230768 1.2782492,12.2794028 1.2782492,12.3286785 Z" id="路径" fill="#000000"></path>
                <path d="M4.67135791,9.89534572 C4.94744529,9.86953378 5.18153249,9.76054846 5.37366159,9.56840378 C5.48264603,9.45941846 5.54580062,9.35873785 5.56316743,9.2662918 C5.58050618,9.17387382 5.55974457,9.09820554 5.50081244,9.03925891 C5.44994649,8.98839255 5.38012855,8.96217378 5.29131653,8.96054651 C5.20253257,8.95894729 5.02615705,9.01260527 4.7621619,9.1215906 C4.34483943,9.29030814 4.01749331,9.25598105 3.78016561,9.01865145 C3.6057961,8.84428053 3.53676374,8.64249846 3.57308255,8.41322106 C3.60941537,8.18399977 3.73695901,7.95995489 3.95572751,7.74118464 C4.13896279,7.55794788 4.31657278,7.42799036 4.48850139,7.35129802 L4.86387979,7.72666542 C4.65240592,7.7670527 4.46228285,7.87157705 4.29356667,8.04026651 C4.19507527,8.13875872 4.13433351,8.23545532 4.11134142,8.33028616 C4.08832128,8.42514506 4.10709091,8.5028334 4.16765029,8.56336522 C4.21607535,8.61180469 4.2808572,8.63624187 4.36199583,8.63663466 C4.44312043,8.63704148 4.59789265,8.59247379 4.82636861,8.50283339 C5.09274854,8.39626092 5.30527452,8.35249283 5.46389045,8.371459 C5.62253443,8.39043919 5.76316631,8.46128177 5.88585623,8.58397268 C6.06589309,8.76398294 6.13933029,8.96499346 6.10625199,9.18697618 C6.07314563,9.40897293 5.93914906,9.63742268 5.70424823,9.87232541 C5.4895058,10.0870696 5.27884556,10.2283338 5.07216931,10.2961323 L4.67135791,9.89534572 Z" id="路径" fill="#FFFFFF"></path>
                <polygon id="路径" fill="#FFFFFF" points="7.82204506 7.68913987 6.72135687 8.78982292 4.8457274 6.9141643 5.2453043 6.51457014 6.79400849 8.06328683 7.49509172 7.36216988"></polygon>
                <path d="M9.76669286,5.74446234 L9.33078313,6.18037558 L8.76045598,5.89098721 L8.07874558,6.57270312 L8.37057251,7.14060799 L7.93707562,7.57409435 L6.74799627,5.01188007 L7.21781195,4.5420606 L9.76669286,5.74446234 Z M8.35724581,5.67664987 L7.49389934,5.2395302 C7.43899328,5.21209098 7.37481465,5.16729884 7.30136342,5.10512572 L7.29046356,5.11602566 C7.34052991,5.17577189 7.38250205,5.2395302 7.41640801,5.30734267 L7.85715744,6.17674228 L8.35724581,5.67664987 Z" id="形状" fill="#FFFFFF"></path>
                <polygon id="路径" fill="#FFFFFF" points="11.1143882 4.39675618 10.0040346 5.50713274 8.1283911 3.6314741 9.1951593 2.56469729 9.5220986 2.89163923 8.85489326 3.55883591 9.29686314 4.00080936 9.9168358 3.38083169 10.2425547 3.70655318 9.62259603 4.32653085 10.0766722 4.78061065 10.7874629 4.06982824"></polygon>
                <path d="M13.9971242,5.03644351 C13.9971242,5.03644351 13.4365887,1.99437956 13.3192716,1.4471523 C13.2019544,0.899896985 13.0613085,0.77672912 12.5528594,0.680705876 C12.0444103,0.584682633 8.96352701,0.00286176271 8.96352701,0.00286176271 C8.91943664,-0.000953920904 8.87505167,-0.000953920904 8.83090519,0.00286176271 C8.65743348,0.0178298821 8.48802994,0.0915903163 8.35528186,0.224353501 L6.590208,1.98942759 L4.52331918,4.0563331 L3.75689297,4.82276549 L0.224472679,8.35529847 C-0.0748312367,8.65460481 -0.0748172161,9.1398834 0.224472679,9.43921779 L4.56095662,13.7756666 C4.58624932,13.8010156 4.61300094,13.8239939 4.64080467,13.8450502 C4.88751718,14.0320185 5.22144249,14.0497923 5.48470817,13.8983295 C5.64215976,13.776873 5.99464427,13.431526 6.36877416,13.0339239 C6.37319302,13.0298697 6.37778022,13.0261663 6.38205879,13.0219438 C6.39307086,13.0109457 6.4029747,12.9993443 6.41237355,12.9874484 C6.46771448,12.9172511 6.49511139,12.8322681 6.49440998,12.7473973 L6.49509737,12.7473973 C6.49533584,12.5022119 6.58912784,12.2571106 6.77637516,12.0702265 C6.95749219,11.8895008 7.19284192,11.7965217 7.4299171,11.7908403 C7.43796925,11.7906299 7.44600736,11.7902511 7.45408755,11.7902932 C7.89542615,11.790714 8.33690504,11.6228101 8.67398668,11.2863711 C8.99076963,10.9701888 9.15889662,10.5614342 9.17832556,10.1470122 C9.179546,10.1204988 9.18023339,10.0939715 9.18026144,10.06743 L9.1802895,10.0674441 C9.18052797,9.82227268 9.27429192,9.57718546 9.46153922,9.39027331 C9.6487725,9.20340325 9.8940822,9.11008745 10.1392797,9.11031191 C10.146434,9.11031191 10.1536024,9.1101576 10.1607848,9.11008745 C10.5948849,9.10509341 11.0275401,8.93734381 11.3591367,8.6063898 C11.676088,8.29008125 11.844215,7.88110221 11.8635036,7.46638562 C11.8647241,7.44006866 11.8653974,7.41373767 11.8654115,7.38737863 C11.865664,7.14220724 11.9593999,6.89710598 12.1466752,6.71020787 C12.3339646,6.52330975 12.5792182,6.43002202 12.8243876,6.43026049 L12.8243876,6.43006409 C12.9246466,6.43187373 13.0254386,6.39481115 13.1020041,6.31841341 L13.7756483,5.64476373 C13.7812736,5.63915244 13.7865902,5.63340086 13.791963,5.6277054 C13.822418,5.59064282 13.8519472,5.55269645 13.8806347,5.51390839 C13.9478715,5.40823373 13.9867154,5.28968114 13.9971523,5.16913657 C14.0009539,5.1249897 14.0009539,5.08059035 13.9971242,5.03644351 Z M13.1032105,5.26800751 L13.1032386,5.2680496 C13.0937275,5.27756074 13.083978,5.28733841 13.0737234,5.297565 C12.9967511,5.37459401 12.9000132,5.47134672 12.7954055,5.57587106 C12.7953915,5.57585703 12.7953915,5.57581495 12.7953775,5.57580092 C12.734762,5.63502811 12.659445,5.66986021 12.5813365,5.68084431 C12.5813505,5.68095653 12.5814066,5.68105473 12.5814206,5.68116695 C12.224405,5.73148622 11.8800709,5.89337201 11.605218,6.16769406 C11.3741328,6.39831817 11.2221381,6.67822347 11.1493041,6.97367203 C11.1158751,7.1091146 11.0990835,7.24786782 11.0989712,7.38662107 C11.0986767,7.63182051 11.0049127,7.87697788 10.8176654,8.06389003 C10.6304321,8.25073203 10.3851645,8.34404782 10.139953,8.34380935 L10.139953,8.3438374 C9.97199437,8.34366906 9.80402169,8.36799402 9.64173038,8.41660184 C9.37770718,8.49573509 9.12884837,8.63937014 8.92008193,8.84774549 C8.6880709,9.07933756 8.53576762,9.36053344 8.46325628,9.65725858 C8.43041645,9.79160695 8.41391939,9.92911167 8.41382119,10.0666585 L8.41379314,10.0666444 C8.41355466,10.3118439 8.31980475,10.5569451 8.13251534,10.7438292 C7.94528206,10.9307273 7.70000042,11.0240291 7.45480296,11.0237906 C7.28199058,11.0236083 7.10919222,11.0493781 6.94263639,11.1008196 C6.68380359,11.1808086 6.44000893,11.3229988 6.23491786,11.5276987 C5.9671772,11.7948804 5.80599413,12.1282613 5.75066724,12.4752496 C5.73708803,12.5385029 5.70734841,12.5987962 5.66149049,12.6499572 C5.48420315,12.8402361 5.34907028,12.9808551 5.31339678,13.0119978 C5.18755054,13.121909 4.96273593,13.093586 4.83189568,12.9627306 L1.03741612,9.16819237 C0.887764161,9.01855323 0.887778196,8.77587886 1.03743015,8.6262257 L3.7568509,5.90669883 L4.52330516,5.14023839 L6.86717915,2.79634546 L8.62624899,1.03728948 L8.75338582,0.910151624 C8.8526067,0.814422982 8.99062935,0.782957654 9.1156339,0.815334813 L9.11639142,0.814549237 C9.82190753,0.958324581 11.9787867,1.39874088 12.1695972,1.44713828 C12.3980731,1.5050889 12.51128,1.63764166 12.5528454,1.83036149 C12.5868776,1.98831936 13.0325789,4.0982214 13.1923171,4.8545675 C13.1948001,4.8660987 13.1971848,4.87740546 13.1994854,4.88829137 C13.2038342,4.90898301 13.2079444,4.92848224 13.2117881,4.94670491 C13.2268964,5.06083861 13.1908722,5.18035913 13.1032105,5.26800751 Z" id="形状" fill="#FFFFFF"></path>
            </g>
        </g>
    </g>
</svg>