<?xml version="1.0" encoding="UTF-8"?>
<svg width="20px" height="22px" viewBox="0 0 20 22" version="1.1" xmlns="http://www.w3.org/2000/svg" xmlns:xlink="http://www.w3.org/1999/xlink">
    <title>shezhi</title>
    <g id="web-首页" stroke="none" stroke-width="1" fill="none" fill-rule="evenodd">
        <g id="首页复制备份" transform="translate(-1298.000000, -133.000000)" fill="#FFFFFF" fill-rule="nonzero">
            <g id="shezhi" transform="translate(1298.000000, 133.000000)">
                <path d="M5.84983586,10.911389 C5.84983586,13.120528 7.70792763,14.911389 10,14.911389 C12.2920724,14.911389 14.1501641,13.120528 14.1501641,10.911389 C14.1501641,8.70224999 12.2920724,6.91138899 10,6.91138899 C7.70792763,6.91138899 5.84983586,8.70224999 5.84983586,10.911389 Z M12.2825903,10.911389 C12.2825903,12.1264154 11.2606398,13.111389 10,13.111389 C8.7393602,13.111389 7.71740972,12.1264154 7.71740972,10.911389 C7.71740972,9.69636254 8.7393602,8.71138899 10,8.71138899 C11.2606398,8.71138899 12.2825903,9.69636254 12.2825903,10.911389 Z" id="形状"></path>
                <path d="M19.2927657,4.99489993 L10.707212,0.182640377 C10.2695877,-0.0608801256 9.73041232,-0.0608801256 9.29278801,0.182640377 L0.707234264,4.99489993 C0.267865806,5.23938585 -0.00199188336,5.69194856 1.10728333e-05,6.18092424 L1.10728333e-05,15.7918109 C-0.00199187535,16.2807865 0.267865813,16.7333492 0.707234264,16.9778352 L9.29278801,21.8173596 C9.73041232,22.0608801 10.2695877,22.0608801 10.707212,21.8173596 L19.2927657,17.0187326 C19.7321342,16.7742466 20.0019919,16.3216839 19.9999889,15.8327082 L19.9999889,6.16729176 C19.996946,5.68318792 19.7277641,5.23694744 19.2927657,4.99489993 Z M17.9545455,15.5076401 L9.99999999,20 L2.04545455,15.5076401 L2.04545455,6.49235992 L9.99999999,2 L17.9545455,6.49235992 L17.9545455,15.5076401 Z" id="形状"></path>
            </g>
        </g>
    </g>
</svg>