<?xml version="1.0" encoding="UTF-8"?>
<svg width="44px" height="44px" viewBox="0 0 44 44" version="1.1" xmlns="http://www.w3.org/2000/svg" xmlns:xlink="http://www.w3.org/1999/xlink">
    <title>telegram-2复制</title>
    <g id="页面1" stroke="none" stroke-width="1" fill="none" fill-rule="evenodd">
        <g id="Complete" transform="translate(-1148.000000, -717.000000)" fill="#FFFFFF" fill-rule="nonzero">
            <g id="编组-7" transform="translate(926.000000, 717.000000)">
                <g id="telegram-2复制" transform="translate(222.000000, 0.000000)">
                    <path d="M22,0 C34.1532258,0 44,9.84677419 44,22 C44,34.1532258 34.1532258,44 22,44 C9.84677419,44 0,34.1532258 0,22 C0,9.84677419 9.84677419,0 22,0 Z M24.7085423,19.9670076 C24.2281316,19.2707399 23.2721142,19.0942885 22.5707146,19.5711842 C21.8693149,20.0480799 21.6915629,20.9971023 22.1719737,21.69337 C22.8205281,22.6328545 22.7004255,23.9061659 21.8837272,24.7168886 L21.8837272,24.7168886 L17.391887,29.1758632 C16.9403009,29.6241452 16.3349834,29.8721309 15.6960371,29.8721309 C15.0570908,29.8721309 14.4517733,29.6241452 14.0001872,29.1758632 C13.5486012,28.7275813 13.2987876,28.1266927 13.2987876,27.4924215 C13.2987876,26.8581502 13.5486012,26.2572617 14.0001872,25.8089797 L14.0001872,25.8089797 L17.6897416,22.1464209 C18.290255,21.5503013 18.290255,20.582203 17.6897416,19.9860834 C17.0892282,19.3899638 16.1139944,19.3899638 15.513481,19.9860834 L15.513481,19.9860834 L11.8239267,23.6486423 C10.7862395,24.678737 10.2193548,26.0426586 10.2193548,27.4924215 C10.2193548,28.9469533 10.7910436,30.310875 11.8239267,31.3362007 C12.8616138,32.3662954 14.2307844,32.9290323 15.6960371,32.9290323 C17.1612898,32.9290323 18.5352645,32.3615264 19.5681475,31.3362007 L19.5681475,31.3362007 L24.0599878,26.877226 C25.9191773,25.0316398 26.1930114,22.1225761 24.7085423,19.9670076 Z M32.2323482,12.4899249 C30.0986608,10.3708853 26.6242104,10.3708853 24.490523,12.4899249 L24.490523,12.4899249 L19.9972849,16.9523168 C18.1375168,18.7993176 17.8635975,21.7058381 19.3485286,23.8630586 C19.6464759,24.2925936 20.1270362,24.5264516 20.6172076,24.5264516 C20.9151549,24.5264516 21.2179079,24.4405446 21.482216,24.2591854 C22.1838339,23.7819242 22.3616412,22.8321745 21.881081,22.1353731 C21.2323247,21.1951686 21.3524647,19.9208813 22.1694171,19.1095373 L22.1694171,19.1095373 L26.6626552,14.6471454 C27.5997476,13.7164861 29.118318,13.7164861 30.0554104,14.6471454 C30.507137,15.0957709 30.7570283,15.6971199 30.7570283,16.3318773 C30.7570283,16.9666347 30.507137,17.5679837 30.0554104,18.0166092 L30.0554104,18.0166092 L26.3647079,21.681975 C25.7640076,22.2785515 25.7640076,23.2473917 26.3647079,23.8439681 C26.9654082,24.4405446 27.9409454,24.4405446 28.5416457,23.8439681 L28.5416457,23.8439681 L32.2323482,20.1786023 C33.2655527,19.1524908 33.8374194,17.7875239 33.8374194,16.3366499 C33.8374194,14.8810033 33.2655527,13.5160364 32.2323482,12.4899249 Z" id="形状"></path>
                </g>
            </g>
        </g>
    </g>
</svg>