<?xml version="1.0" encoding="UTF-8"?>
<svg width="20px" height="19px" viewBox="0 0 20 19" version="1.1" xmlns="http://www.w3.org/2000/svg" xmlns:xlink="http://www.w3.org/1999/xlink">
    <title>008-分享</title>
    <g id="页面1" stroke="none" stroke-width="1" fill="none" fill-rule="evenodd">
        <g id="market-price" transform="translate(-553.000000, -1491.000000)" fill="#FFFFFF" fill-rule="nonzero">
            <g id="008-分享" transform="translate(553.000000, 1491.000000)">
                <path d="M14.9695992,18.9105943 L4.99133832,18.9105943 C2.24133832,18.9105943 0.00220788043,16.6481665 0.00220788043,13.8695538 L0.00220788043,5.03949603 C0.00220788043,2.95279082 1.67612092,1.26146134 3.74133832,1.26146134 L4.60003397,1.26146134 C5.28481658,1.26146134 5.85003397,1.82157695 5.85003397,2.52446712 C5.85003397,3.2273573 5.29568614,3.7874729 4.60003397,3.7874729 L3.74133832,3.7874729 C3.05655571,3.7874729 2.49133832,4.34758851 2.49133832,5.05047868 L2.49133832,13.8695538 C2.49133832,15.2643515 3.61090353,16.3955654 4.99133832,16.3955654 L14.9695992,16.3955654 C16.350034,16.3955654 17.4695992,15.2643515 17.4695992,13.8695538 L17.4695992,10.0915191 C17.4695992,9.39961163 18.023947,8.82851337 18.7195992,8.82851337 C19.4152514,8.82851337 19.9695992,9.38862897 19.9695992,10.0915191 L19.9695992,13.8695538 C19.9587296,16.6481665 17.7195992,18.9105943 14.9695992,18.9105943 Z M8.11090353,11.9805365 L8.11090353,8.82851337 C8.11090353,7.43371568 9.23046875,6.30250181 10.6109035,6.30250181 L18.7195992,6.30250181 C19.2195992,6.30250181 19.6761209,5.99498736 19.8717731,5.52273302 C20.0674253,5.05047868 19.9587296,4.5123284 19.600034,4.14990065 L15.850034,0.371865968 C15.3609035,-0.122353685 14.5782948,-0.122353685 14.0891644,0.371865968 C13.600034,0.866085621 13.600034,1.65683707 14.0891644,2.15105672 L15.6978601,3.77649025 L10.600034,3.77649025 C7.85003397,3.77649025 5.61090353,6.03891799 5.61090353,8.81753071 L5.61090353,11.9805365 C5.61090353,12.672444 6.16525136,13.2435423 6.86090353,13.2435423 C7.54568614,13.2325596 8.11090353,12.672444 8.11090353,11.9805365 Z" id="形状"></path>
            </g>
        </g>
    </g>
</svg>