<?xml version="1.0" encoding="UTF-8"?>
<svg width="24px" height="24px" viewBox="0 0 24 24" version="1.1" xmlns="http://www.w3.org/2000/svg" xmlns:xlink="http://www.w3.org/1999/xlink">
    <title>形状结合</title>
    <g id="页面1" stroke="none" stroke-width="1" fill="none" fill-rule="evenodd">
        <g id="market-price" transform="translate(-254.000000, -1868.000000)" fill="#FFFFFF">
            <path d="M266,1868 C272.627417,1868 278,1873.37258 278,1880 C278,1886.62742 272.627417,1892 266,1892 C259.372583,1892 254,1886.62742 254,1880 C254,1873.37258 259.372583,1868 266,1868 Z M265.986764,1873.05263 C265.719635,1873.05263 265.479117,1873.21524 265.37842,1873.46393 L264.016374,1876.80791 C263.928323,1877.03598 263.720215,1877.19495 263.478015,1877.21915 L259.644905,1877.58168 C259.38456,1877.60947 259.164949,1877.78883 259.084607,1878.03927 C259.004264,1878.28972 259.078278,1878.56423 259.273438,1878.73964 L262.159038,1881.28821 C262.344652,1881.44794 262.425717,1881.69864 262.368998,1881.93753 L261.475323,1885.49796 C261.415321,1885.75702 261.514544,1886.02711 261.727654,1886.18481 C261.940763,1886.34251 262.226829,1886.35754 262.455135,1886.22303 L265.647599,1884.34001 C265.85288,1884.2155 266.109882,1884.2155 266.315163,1884.34001 L269.550695,1886.23926 C269.78025,1886.36063 270.05917,1886.33612 270.264284,1886.17655 C270.469398,1886.01698 270.562935,1885.75174 270.503589,1885.49796 L269.6476,1881.92129 C269.590881,1881.68241 269.671946,1881.43171 269.85756,1881.27198 L272.743159,1878.7234 C272.930564,1878.54053 272.995758,1878.26519 272.910397,1878.01707 C272.825036,1877.76896 272.60454,1877.59291 272.344774,1877.56545 L272.344774,1877.58168 L268.517048,1877.21915 C268.276237,1877.19143 268.069734,1877.03369 267.97869,1876.80791 L266.595109,1873.46393 C266.494412,1873.21524 266.253894,1873.05263 265.986764,1873.05263 Z" id="形状结合"></path>
        </g>
    </g>
</svg>