<?xml version="1.0" encoding="UTF-8"?>
<svg width="50px" height="50px" viewBox="0 0 50 50" version="1.1" xmlns="http://www.w3.org/2000/svg" xmlns:xlink="http://www.w3.org/1999/xlink">
    <title>emichenggong</title>
    <g id="个人中心" stroke="none" stroke-width="1" fill="none" fill-rule="evenodd">
        <g id="Edit-profile-Save-successfully" transform="translate(-935.000000, -632.000000)" fill="#FFFFFF" fill-rule="nonzero">
            <g id="emichenggong" transform="translate(935.000000, 632.000000)">
                <path d="M14.9580085,24.2266014 C14.0527747,23.3024033 12.5839629,23.3024033 11.6789254,24.2266014 C10.7736915,25.151 10.7736915,26.6487141 11.6789254,27.5729122 L21.2187728,37.3056491 C21.6716516,37.7685497 22.2654085,38 22.8591654,38 C23.4511549,38 24.045501,37.7685497 24.4978561,37.3064506 L46.3218602,15.0391924 C47.2260466,14.1147269 47.2260466,12.6164784 46.3218602,11.693349 C45.4158408,10.7688837 43.947749,10.7688837 43.0417296,11.693349 L22.8591654,32.2891552 L14.9580085,24.2266014 L14.9580085,24.2266014 Z" id="路径"></path>
                <path d="M49.8667831,22.4010806 C49.7656788,21.4203613 48.8871232,20.7064728 47.9071322,20.8083718 C46.9260818,20.9095424 46.2127893,21.7865751 46.3144234,22.768089 C46.3906986,23.5034297 46.42877,24.2541978 46.42877,25.0001325 C46.42877,36.8159728 36.8159728,46.4287701 25.0001324,46.4287701 C13.1837624,46.4287701 3.57129613,36.8159728 3.57129613,25.0001325 C3.57129613,13.1837624 13.1837624,3.57122996 25.0001324,3.57122996 C29.215398,3.57122996 33.2944011,4.79381854 36.7953149,7.10710318 C37.6185179,7.65076276 38.7260315,7.42339375 39.2696912,6.60091902 C39.8125563,5.77798086 39.5865114,4.67020235 38.763507,4.12654277 C34.6775517,1.42691618 29.9173685,0 25.0001324,0 C11.2150405,0 0,11.2153054 0,25.0001325 C0,38.7849595 11.2150405,50 25.0001324,50 C38.7849595,50 50,38.7849595 50,25.0001325 C50,24.1319059 49.9555061,23.2577202 49.8667831,22.4010806 L49.8667831,22.4010806 Z" id="路径"></path>
            </g>
        </g>
    </g>
</svg>