<?xml version="1.0" encoding="UTF-8"?>
<svg width="27px" height="27px" viewBox="0 0 27 27" version="1.1" xmlns="http://www.w3.org/2000/svg" xmlns:xlink="http://www.w3.org/1999/xlink">
    <!-- Generator: Sketch 54 (76480) - https://sketchapp.com -->
    <title>品牌标识_telegram</title>
    <desc>Created with Sketch.</desc>
    <g id="页面1" stroke="none" stroke-width="1" fill="none" fill-rule="evenodd">
        <g id="首页" transform="translate(-1506.000000, -14.000000)" fill="#FFFFFF" fill-rule="nonzero">
            <g id="页头登录1440" transform="translate(240.000000, 0.000000)">
                <g id="编组" transform="translate(0.000000, 12.000000)">
                    <g id="品牌标识_telegram" transform="translate(1266.250000, 2.000000)">
                        <path d="M2.03820477e-16,13.3099245 C1.01910238e-15,5.95905616 5.95905616,-4.07640954e-16 13.3099245,0 C20.6607927,4.07640954e-16 26.6198489,5.95905616 26.6198489,13.3099245 C26.6198489,20.6607927 20.6607927,26.6198489 13.3099245,26.6198489 C5.95905616,26.6198489 1.01910238e-15,20.6607927 2.03820477e-16,13.3099245 Z M20.1530615,8.26133242 C20.3504155,7.34340659 19.8226082,6.99000515 19.2167771,7.21489698 L6.18682005,12.2359512 C5.30102163,12.584763 5.31479052,13.080443 6.03995192,13.3099245 L9.36743304,14.3517703 L17.1055477,9.50053228 C17.4727181,9.26187157 17.8031714,9.39497081 17.5277936,9.63822115 L11.2721291,15.2513376 L11.0288788,18.6889698 C11.2943675,18.6904377 11.5454266,18.5683009 11.7081439,18.3585165 L13.3374622,16.8118115 L16.7154293,19.2993905 C17.3350292,19.6436126 17.771044,19.4646171 17.9362706,18.7256868 L20.1530615,8.26133242 Z" id="形状结合"></path>
                    </g>
                </g>
            </g>
        </g>
    </g>
</svg>