<?xml version="1.0" encoding="UTF-8"?>
<svg width="24px" height="24px" viewBox="0 0 24 24" version="1.1" xmlns="http://www.w3.org/2000/svg" xmlns:xlink="http://www.w3.org/1999/xlink">
    <title>tuitetwitter44</title>
    <g id="个人中心" stroke="none" stroke-width="1" fill="none" fill-rule="evenodd">
        <g id="Edit-profile" transform="translate(-499.000000, -1323.000000)" fill="#FFFFFF" fill-rule="nonzero">
            <g id="tuitetwitter44" transform="translate(499.000000, 1323.000000)">
                <path d="M17.11952,9.60026393 C17.11952,9.47845787 17.1173491,9.35774916 17.1119219,9.23813779 C17.6275101,8.8496752 18.0747151,8.36354831 18.4285714,7.80719087 C17.9553157,8.02227184 17.4473256,8.16602496 16.9132847,8.22637931 C17.4581801,7.88729758 17.8760779,7.34520571 18.0736296,6.69447601 C17.5634686,7.00722132 16.9990352,7.23108109 16.3987819,7.34740039 C15.917928,6.79433502 15.2319243,6.44208505 14.4731955,6.42891684 C13.016523,6.4047751 11.8355545,7.64917218 11.8355545,9.20850927 C11.8355545,9.43017437 11.8583489,9.64525534 11.9039378,9.85265486 C9.71024544,9.70999911 7.76620637,8.55558488 6.46583854,6.81518472 C6.23897971,7.23217846 6.10872583,7.71940272 6.10872583,8.24174223 C6.10872583,9.22935897 6.57438343,10.1072405 7.28209613,10.6251906 C6.84900201,10.6054383 6.4430441,10.4726587 6.08701685,10.255383 C6.08701685,10.2674539 6.08701685,10.2795248 6.08701685,10.2915956 C6.08701685,11.6720644 6.99662307,12.8286733 8.2036423,13.0986219 C7.9822107,13.1622683 7.7488392,13.1951889 7.50895497,13.1940915 C7.33853949,13.1929942 7.17355125,13.1743392 7.01290479,13.1392239 C7.3483085,14.2705938 8.32304168,15.0968998 9.47687391,15.1243335 C8.57378039,15.8815064 7.43622987,16.3336154 6.20098897,16.3303233 C5.98824098,16.3303233 5.77766389,16.3160578 5.57142857,16.2897213 C6.73937164,17.099567 8.12548997,17.5714286 9.61581137,17.5714286 C14.4666828,17.5725257 17.11952,13.3038267 17.11952,9.60026393 Z" id="路径"></path>
                <path d="M24,12 C24,5.37272728 18.6272727,0 12,0 C5.37272728,0 0,5.37272728 0,12 C0,18.6272727 5.37272728,24 12,24 C18.6272727,24 24,18.6272727 24,12 Z M1.0909091,12 C1.0909091,5.9749091 5.9749091,1.0909091 12,1.0909091 C18.0250909,1.0909091 22.9090909,5.9749091 22.9090909,12 C22.9090909,18.0250909 18.0250909,22.9090909 12,22.9090909 C5.9749091,22.9090909 1.0909091,18.0250909 1.0909091,12 Z" id="形状"></path>
            </g>
        </g>
    </g>
</svg>