<?xml version="1.0" encoding="UTF-8"?>
<svg width="27px" height="27px" viewBox="0 0 27 27" version="1.1" xmlns="http://www.w3.org/2000/svg" xmlns:xlink="http://www.w3.org/1999/xlink">
    <!-- Generator: Sketch 54 (76480) - https://sketchapp.com -->
    <title>推特</title>
    <desc>Created with Sketch.</desc>
    <g id="页面1" stroke="none" stroke-width="1" fill="none" fill-rule="evenodd">
        <g id="首页" transform="translate(-1457.000000, -14.000000)" fill="#FFFFFF" fill-rule="nonzero">
            <g id="页头登录1440" transform="translate(240.000000, 0.000000)">
                <g id="编组" transform="translate(0.000000, 12.000000)">
                    <g id="推特" transform="translate(1217.000000, 2.000000)">
                        <path d="M13.365,0 C5.98441741,0 0,5.98441741 0,13.365 C0,20.7455826 5.98441741,26.73 13.365,26.73 C20.7455826,26.73 26.73,20.7455826 26.73,13.365 C26.73,5.98441741 20.7455826,0 13.365,0 Z M19.7879565,10.0744654 C19.7969062,10.2146786 19.7969062,10.3608583 19.7969062,10.5040547 C19.7969062,14.8834788 16.4616228,19.9281696 10.3668248,19.9281696 C8.48737165,19.9281696 6.74514844,19.3822333 5.27738504,18.4425067 C5.54587835,18.4723393 5.80243862,18.4842723 6.07689844,18.4842723 C7.62819308,18.4842723 9.05419085,17.9592187 10.1908125,17.0702076 C8.73498214,17.040375 7.51184598,16.0857321 7.09418973,14.7730982 C7.60432701,14.8476797 8.06374888,14.8476797 8.58880246,14.713433 C7.07330692,14.4061574 5.93668527,13.0726406 5.93668527,11.4616808 L5.93668527,11.4199152 C6.37522433,11.6675257 6.89132812,11.8196719 7.43129799,11.8405547 C6.50947098,11.2260033 5.95458482,10.1908125 5.95458482,9.08402344 C5.95458482,8.46648884 6.1156808,7.9026529 6.40505692,7.41339844 C8.03689955,9.42411496 10.4891384,10.7367489 13.2367199,10.8769621 C12.7683482,8.62460156 14.4509062,6.80183036 16.4735558,6.80183036 C17.4281987,6.80183036 18.2873772,7.20158705 18.8929788,7.84597098 C19.6417768,7.70575781 20.3577589,7.42533147 20.9961763,7.04944085 C20.7485658,7.81613839 20.2294788,8.46350558 19.540346,8.87221205 C20.208596,8.80061384 20.8529799,8.61565179 21.4496317,8.35610826 C20.9991596,9.01839174 20.4353237,9.60609375 19.7879565,10.0744654 L19.7879565,10.0744654 Z" id="形状"></path>
                    </g>
                </g>
            </g>
        </g>
    </g>
</svg>