<?xml version="1.0" encoding="UTF-8"?>
<svg width="24px" height="24px" viewBox="0 0 24 24" version="1.1" xmlns="http://www.w3.org/2000/svg" xmlns:xlink="http://www.w3.org/1999/xlink">
    <title>zhandianditu</title>
    <g id="个人中心" stroke="none" stroke-width="1" fill="none" fill-rule="evenodd">
        <g id="Edit-profile" transform="translate(-499.000000, -1385.000000)" fill="#FFFFFF" fill-rule="nonzero">
            <g id="zhandianditu" transform="translate(499.000000, 1385.000000)">
                <path d="M20.4347125,3.44041775 L20.0202397,3.02591383 C19.6472024,2.6943107 19.3156242,2.40414621 18.9011279,2.15544386 C17.616274,1.24353524 16.124125,0.621767619 14.5491285,0.248702352 C14.0103256,0.124362915 13.4714992,0.041462131 12.8912608,0 L11.9379616,0 C11.689278,0 11.3991353,0 11.1504516,0.041462131 C10.6116252,0.082900784 10.0313399,0.165801568 9.49256045,0.290164483 C7.91754039,0.621767619 6.4253914,1.24353524 5.1405375,2.15544386 L4.02142576,3.02591383 L3.44118734,3.60621932 C1.20298734,5.88600262 -0.0404544978,8.91191645 0.00100451898,12.1036318 C0.0424400595,15.2953472 1.28585842,18.3212611 3.60695298,20.5596057 L4.02142576,20.9741096 C4.39446301,21.3057128 4.72604124,21.5958538 5.14051403,21.8445796 C6.34249685,22.6735875 7.66880976,23.2953551 9.07804071,23.6269582 C9.61686708,23.7512976 10.15567,23.8756606 10.6944963,23.9170992 C11.1504046,23.9585613 11.5649009,24 12.0208327,24 L12.1037038,24 C12.5182001,24 12.9326728,23.9585613 13.3471456,23.9171227 C13.885972,23.8341984 14.4662574,23.7512976 14.9636012,23.6269347 C16.3728322,23.2538929 17.6991686,22.6321253 18.8597159,21.8031175 L19.9787806,20.9326475 C22.4656408,18.6943029 24.0406374,15.4611488 23.9992019,11.8549295 C23.9992019,8.70465275 22.7557835,5.72020105 20.4347125,3.44041775 Z M22.63143,11.3160627 L16.7044104,11.3160627 C16.6215393,9.28498172 16.4142912,7.29533942 16.041254,5.43006004 C17.0774477,5.05699478 18.0307468,4.55959007 18.9425869,3.93782246 C21.0564099,5.76166318 22.4242053,8.37304961 22.63143,11.3160627 L22.63143,11.3160627 Z M14.7978121,18.279799 C13.844513,18.0725587 12.8912373,17.9481958 11.8964791,17.9481958 C10.984639,17.9481958 10.0727754,18.0725587 9.20239429,18.279799 C8.91222812,16.4974204 8.78789803,14.632141 8.74646249,12.725376 L15.2122849,12.725376 C15.2537439,14.632141 15.0879548,16.4559582 14.7978121,18.279799 Z M9.40961894,5.80310183 C10.2385645,6.01036553 11.1089691,6.09326632 12.0208327,6.09326632 L12.1037038,6.09326632 C12.9741319,6.09326632 13.8030774,6.01036553 14.632023,5.80310183 C14.9636012,7.58550391 15.1708494,9.40932115 15.2537439,11.3160627 L8.7879215,11.3160627 C8.87079258,9.45078328 9.07804071,7.58550391 9.40961894,5.80310183 L9.40961894,5.80310183 Z M17.7406276,3.06735248 C17.121495,3.48057213 16.4531417,3.81477388 15.7511113,4.06218537 C15.5438866,3.31605484 15.3366385,2.56994778 15.1294138,1.86527938 C16.0412305,2.11398173 16.9116585,2.52850913 17.7406276,3.06735248 L17.7406276,3.06735248 Z M11.9379147,1.36787467 L12.0207858,1.36787467 C12.5181766,1.36787467 13.0155439,1.40933681 13.4714757,1.45077546 C13.803054,2.40414621 14.0931966,3.3989791 14.3418803,4.43522716 C13.6372648,4.60102873 12.8912138,4.68392951 12.1037038,4.68392951 L12.0208092,4.68392951 C11.2332992,4.68392951 10.4457892,4.60105221 9.69971468,4.43522716 C9.94842183,3.39895562 10.238541,2.40414621 10.5701427,1.45077546 C11.0260511,1.40933681 11.4819829,1.36787467 11.9379147,1.36787467 L11.9379147,1.36787467 Z M8.9122516,1.86527938 C8.70500347,2.56994778 8.49777881,3.31605484 8.29053068,4.06218537 C7.58850839,3.81477209 6.92016306,3.48057038 6.30103783,3.06735248 C7.1299834,2.52850913 8.00041147,2.11398173 8.9122516,1.86527938 L8.9122516,1.86527938 Z M5.14051403,3.93782246 C6.05235416,4.55959007 7.0056533,5.05701826 8.04184701,5.43006004 C7.66880976,7.33680155 7.46158511,9.32642037 7.37869055,11.3160627 L1.41021199,11.3160627 C1.61746013,8.37304961 2.98523206,5.7616397 5.14051403,3.93782246 Z M1.41021199,12.7253995 L7.33725501,12.7253995 C7.33725501,14.7564804 7.50302065,16.7875614 7.83459888,18.6943029 C6.88132321,19.0673681 5.9694596,19.5233107 5.14051403,20.1036397 C2.98523206,18.279799 1.61743665,15.6684125 1.41021199,12.7253995 L1.41021199,12.7253995 Z M6.30103783,20.9741096 C6.83986419,20.6010444 7.46158511,20.3108799 8.08330603,20.0621775 C8.20763612,20.7254073 8.37342524,21.4300522 8.58067337,22.0518198 C7.7517278,21.8031175 7.0056533,21.4300522 6.30103783,20.9741096 L6.30103783,20.9741096 Z M12.1037273,22.6735875 L12.0208327,22.6735875 C11.3991118,22.6735875 10.7773909,22.6321253 10.197129,22.5077859 C9.90698629,21.5958538 9.65830262,20.6425065 9.4925135,19.6476971 C10.2800235,19.4404334 11.1089691,19.3575091 11.9793737,19.3575091 L12.0622683,19.3575091 C12.9326728,19.3575091 13.8030774,19.4818721 14.5905875,19.6476971 C14.3833393,20.6425065 14.1346791,21.5958538 13.885972,22.5077859 C13.2642511,22.5906632 12.6839892,22.6321253 12.1037273,22.6735875 L12.1037273,22.6735875 Z M15.4609686,22.0932585 L15.9583359,20.1036162 C16.5800568,20.3523185 17.1603187,20.642483 17.7405806,21.0155248 C17.0359652,21.4300287 16.2899142,21.803094 15.4609686,22.0932585 L15.4609686,22.0932585 Z M18.9011279,20.1036162 C18.0721824,19.5233107 17.1603187,19.0258825 16.2070196,18.6942794 C16.5385978,16.7875379 16.7043869,14.7564569 16.7043869,12.725376 L22.63143,12.725376 C22.4241818,15.668389 21.0564099,18.279799 18.9011279,20.1036162 L18.9011279,20.1036162 Z" id="形状"></path>
            </g>
        </g>
    </g>
</svg>